<svg xmlns="http://www.w3.org/2000/svg" width="26.982" height="23.409" viewBox="0 0 26.982 23.409"><defs><style>.a{fill:#707070;}</style></defs><path class="a" d="M240.843,15.2a.772.772,0,0,1-.843-.67V.67a.865.865,0,0,1,1.686,0V14.526A.772.772,0,0,1,240.843,15.2Zm0,0" transform="translate(-227.352 0)"/><path class="a" d="M160.012,251.5a.837.837,0,0,1-.6-.247l-4.5-4.5a.844.844,0,1,1,1.193-1.193l3.9,3.9,3.9-3.9a.844.844,0,0,1,1.193,1.193l-4.5,4.5A.845.845,0,0,1,160.012,251.5Zm0,0" transform="translate(-146.521 -235.961)"/><path class="a" d="M23.89,350.326H3.092A3.094,3.094,0,0,1,0,347.234v-5.059a.843.843,0,0,1,1.686,0v5.059a1.407,1.407,0,0,0,1.405,1.405h20.8a1.407,1.407,0,0,0,1.405-1.405v-5.059a.843.843,0,0,1,1.686,0v5.059A3.094,3.094,0,0,1,23.89,350.326Zm0,0" transform="translate(0 -326.917)"/></svg>