<svg xmlns="http://www.w3.org/2000/svg" width="35.083" height="39.723" viewBox="0 0 35.083 39.723"><defs><style>.a{fill:#fff;}</style></defs><path class="a" d="M35.193.506A3.446,3.446,0,0,0,31.887.348L49.721,18.22l5.831-5.858ZM30.248,2A3.634,3.634,0,0,0,29.9,3.554V36.246a3.5,3.5,0,0,0,.349,1.536L48.078,19.871ZM49.723,21.518,31.918,39.409a3.5,3.5,0,0,0,1.477.314,3.458,3.458,0,0,0,1.8-.485L55.556,27.364Zm13.583-4.641-.022-.013-5.653-3.292-6.267,6.3,6.27,6.284,5.671-3.306a3.492,3.492,0,0,0,0-5.969Z" transform="translate(-29.902 0)"/></svg>