<svg xmlns="http://www.w3.org/2000/svg" width="39.478" height="39.478" viewBox="0 0 39.478 39.478"><defs><style>.a{fill:#fff;}</style></defs><path class="a" d="M163.528,109.723a7.928,7.928,0,0,0-.889.126c-1.651.308-11.383,2.291-11.549,2.355a1.244,1.244,0,0,0-.633.574l-.1.208s-.048,14.725-.123,14.89a1.117,1.117,0,0,1-.6.567c-.11.036-.545.136-.966.222-1.952.4-2.678.684-3.291,1.3a2.765,2.765,0,0,0-.718,1.329,3.47,3.47,0,0,0,.081,1.632,2.77,2.77,0,0,0,1.967,1.8,5.564,5.564,0,0,0,3.423-.533,3.782,3.782,0,0,0,1.057-1.021,4.024,4.024,0,0,0,.317-.647c.279-.741.287-13.932.323-14.1a.709.709,0,0,1,.508-.558c.234-.063,9.605-1.959,9.869-2a.6.6,0,0,1,.6.225c.076.116.265,9.216.01,9.519-.186.221-.572.306-1.524.505a9.482,9.482,0,0,0-2.5.724,2.679,2.679,0,0,0-1.375,1.357,2.61,2.61,0,0,0-.288,1.224,2.692,2.692,0,0,0,.872,2.021,2.549,2.549,0,0,0,1.317.759,6.25,6.25,0,0,0,2.6-.2,3.339,3.339,0,0,0,2.312-2.383,2.648,2.648,0,0,0,.1-.714c0-2.617.01-18.48-.025-18.6a.765.765,0,0,0-.773-.591Zm0,0" transform="translate(-135.678 -102.955)"/><path class="a" d="M19.739,0A19.739,19.739,0,1,0,39.478,19.739,19.739,19.739,0,0,0,19.739,0Zm0,37.82A18.081,18.081,0,1,1,37.82,19.739,18.081,18.081,0,0,1,19.739,37.82Zm0,0"/></svg>