<svg xmlns="http://www.w3.org/2000/svg" width="33.204" height="33.204" viewBox="0 0 33.204 33.204"><defs><style>.a{fill:#fff;}</style></defs><path class="a" d="M4.929,369.857a4.929,4.929,0,0,0,0-9.857,4.929,4.929,0,1,0,0,9.857Zm0,0" transform="translate(0 -336.654)"/><path class="a" d="M15.694,200.558c0,.328-.028.65-.049.973h5.837c.015-.325.049-.644.049-.973A20.674,20.674,0,0,0,.973,180c-.328,0-.648.034-.973.049v5.837c.323-.022.644-.049.973-.049A14.83,14.83,0,0,1,15.694,200.558Zm0,0" transform="translate(0 -168.327)"/><path class="a" d="M.973,0C.644,0,.326.04,0,.049V5.886c.326-.012.644-.049.973-.049A26.517,26.517,0,0,1,27.367,32.231c0,.328-.037.647-.049.973h5.837c.01-.326.049-.644.049-.973A32.323,32.323,0,0,0,.973,0Zm0,0"/></svg>