<svg xmlns="http://www.w3.org/2000/svg" width="28.025" height="26.158" viewBox="0 0 28.025 26.158"><defs><style>.a{fill:#fff;}</style></defs><g transform="translate(0 -15.99)"><path class="a" d="M16.286,16.083a.931.931,0,0,0-.988.112L6.21,23.465H1.868A1.871,1.871,0,0,0,0,25.333v7.473a1.87,1.87,0,0,0,1.868,1.868H6.21l9.086,7.27a.935.935,0,0,0,.99.11.932.932,0,0,0,.529-.841V16.926A.937.937,0,0,0,16.286,16.083Z"/><path class="a" d="M343.342,122.521a.935.935,0,1,0-1.313,1.33,7.451,7.451,0,0,1,0,10.552.933.933,0,1,0,1.313,1.327,9.319,9.319,0,0,0,0-13.209Z" transform="translate(-321.798 -100.058)"/><path class="a" d="M388.46,77.4a.935.935,0,0,0-1.317,1.327,11.148,11.148,0,0,1,0,15.823.935.935,0,0,0,1.317,1.327,13.02,13.02,0,0,0,0-18.476Z" transform="translate(-364.28 -57.565)"/></g></svg>