<svg xmlns="http://www.w3.org/2000/svg" width="40" height="40" viewBox="0 0 40 40">
  <path id="Path_268" data-name="Path 268" d="M28,48A20,20,0,1,0,8,28,20.007,20.007,0,0,0,28,48Zm8.12-10.573c-1.345,0-5.6-4.712-17.533-2.265a5.256,5.256,0,0,1-.96.21,1.324,1.324,0,0,1-.177-2.63c6.6-1.46,13.355-1.33,19.113,2.112a1.343,1.343,0,0,1-.443,2.572Zm2.172-5.29c-.187-.05-.132.115-1-.34a26.139,26.139,0,0,0-19.243-2.37,3.325,3.325,0,0,1-.96.21,1.639,1.639,0,0,1-.312-3.232,29.212,29.212,0,0,1,22.16,2.572,1.68,1.68,0,0,1,.912,1.588A1.562,1.562,0,0,1,38.292,32.138ZM15.58,19.663c7.538-2.208,18.948-1.51,26.04,2.63a1.961,1.961,0,0,1-.83,3.7l0,0a1.849,1.849,0,0,1-1.04-.315c-5.74-3.428-16.007-4.25-22.653-2.4a3.867,3.867,0,0,1-1.04.21,1.859,1.859,0,0,1-1.878-1.9,1.9,1.9,0,0,1,1.4-1.925Z" transform="translate(-8 -8)" fill="#fff"/>
</svg>
