<svg xmlns="http://www.w3.org/2000/svg" width="43.538" height="35.384" viewBox="0 0 43.538 35.384"><defs><style>.a{fill:#fff;}</style></defs><path class="a" d="M13.774,31.559c16.43,0,25.415-13.612,25.415-25.415q0-.58-.025-1.154A18.178,18.178,0,0,0,43.62.364a17.822,17.822,0,0,1-5.13,1.407A8.966,8.966,0,0,0,42.418-3.17,17.915,17.915,0,0,1,36.746-1,8.94,8.94,0,0,0,21.524,7.144,25.362,25.362,0,0,1,3.111-2.189,8.941,8.941,0,0,0,5.877,9.736,8.863,8.863,0,0,1,1.832,8.619c0,.038,0,.074,0,.114A8.935,8.935,0,0,0,9,17.49a8.922,8.922,0,0,1-4.035.153,8.942,8.942,0,0,0,8.345,6.2A17.921,17.921,0,0,1,2.213,27.671a18.179,18.179,0,0,1-2.131-.124A25.286,25.286,0,0,0,13.774,31.56" transform="translate(-0.082 3.824)"/></svg>