<svg xmlns="http://www.w3.org/2000/svg" width="120.312" height="156.302" viewBox="0 0 120.312 156.302"><defs><style>.a{fill:#b5651e;}.b{fill:#ffbf00;}</style></defs><g transform="translate(0)"><path d="M1798.208,9927.066a8.162,8.162,0,0,1-2.436-2.357c-.287-.443-.56-.859-.625-.937s-.339-.625-.638-1.238c-.482-.989-.677-1.445-1.289-3-.156-.417-.69-2.1-1.159-3.647-.091-.326-.26-.963-.365-1.432s-.26-1.135-.352-1.5c-.7-3.021-.677-5.938.065-7.672a9.544,9.544,0,0,1,4.819-4.663,12.633,12.633,0,0,1,3.387-.625,13.071,13.071,0,0,1,3.387.6,10.327,10.327,0,0,1,4.1,3.113,11.493,11.493,0,0,1,1.224,2.748c.677,2.565-.182,7.41-2.462,13.858-1.016,2.84-3.308,6.083-4.793,6.761A3.821,3.821,0,0,1,1798.208,9927.066Z" transform="translate(-1767.485 -9771.05)"/><path d="M87.692,156.082c-1.693-.274-3.686-.664-5.861-1.146-.43-.091-1.224-.261-1.758-.378s-1.407-.287-1.915-.4c-2.983-.625-4.311-.886-5.835-1.159-3.152-.56-4.233-.768-4.832-.938a4.741,4.741,0,0,0-.964-.182,4.741,4.741,0,0,1-.964-.182c-.365-.1-1.042-.287-1.511-.4-.951-.234-3.256-.951-3.842-1.185-.208-.091-.651-.26-.977-.378s-.964-.4-1.433-.612c-1.342-.612-1.6-.716-2.071-.912a57.3,57.3,0,0,1-5.874-3,6.581,6.581,0,0,1,.573-1.563c.156-.378.287-.495.521-.495a18.661,18.661,0,0,1,2.774,1.224,54.219,54.219,0,0,0,5.119,2.423,1.051,1.051,0,0,1,.365.117,4.922,4.922,0,0,0,1.641.664c.182,0,.339.065.365.143a.978.978,0,0,0,.495.247c.247.065.808.234,1.237.391a59.245,59.245,0,0,0,7.62,1.758c.534.1,1.446.274,2.019.378s1.628.287,2.345.4c1.355.234,2.566.469,3.908.782,2.579.6,3.842.873,5.471,1.172,1,.182,2.266.417,2.8.521s1.237.221,1.563.261.886.13,1.237.2a28.8,28.8,0,0,0,8.466-.469,22.687,22.687,0,0,0,6.513-3.282,13.023,13.023,0,0,0,2.514-2.527c.117-.2.261-.365.313-.365s.1-.065.1-.143a2.5,2.5,0,0,1,.378-.677,50.552,50.552,0,0,0,3.178-6.995c.117-.326.326-.912.482-1.3.677-1.784,1.954-5.848,2.514-8.011a62.749,62.749,0,0,0,1.85-17.154l-.091-1.537h-2.24c-2.058,0-2.24.026-2.384.247a1.37,1.37,0,0,1-.625.4,1.156,1.156,0,0,1-1.342-1.654,1.2,1.2,0,0,1,1.98-.234c.208.326.221.326,2.358.326h2.149l-.065-.677c-.026-.378-.091-1.081-.143-1.563l-.078-.886H113.4a9.053,9.053,0,0,1-2.332-.13c0-.3-.469-.651-.847-.651a1.166,1.166,0,0,1-1.042-.925,1.4,1.4,0,0,1,.573-1.29,1.479,1.479,0,0,1,1.433.143c.26.208.326.391.326.938a2.952,2.952,0,0,0,.117.847c.078.117.625.156,1.993.156H115.5v-.352a20.976,20.976,0,0,0-.378-2.162l-.365-1.8-.7-.716-.69-.7H112.27c-1.029,0-1.12.026-1.55.391a1.065,1.065,0,0,1-1.589.052,1.2,1.2,0,0,1,0-1.8,1.065,1.065,0,0,1,1.589.052c.443.378.482.391,1.811.391a3.625,3.625,0,0,1,1.511.156c.221.221.208-.208-.026-.951-.091-.313-.287-.925-.4-1.355-.365-1.211-.99-3.2-1.172-3.712-.091-.247-.261-.782-.378-1.172s-.313-.951-.43-1.237-.274-.729-.365-.977c-.261-.69-1.355-3.361-1.732-4.168-.391-.847-.586-1.25-2.553-5.145a28.65,28.65,0,0,1-1.511-3.256,1.034,1.034,0,0,0-.234-.521,12.743,12.743,0,0,0-1.9-1.5c-.221,0-.586-.482-.534-.7.026-.156.117-.742.208-1.316.182-1.263.208-1.316.782-1.6l.443-.221.039-1.068.039-1.081h-1.889c-1.55,0-1.889.039-1.954.2a1.319,1.319,0,0,1-.521.417.822.822,0,0,1-.86.039,1.2,1.2,0,0,1-.716-1.263,1.106,1.106,0,0,1,1.915-.56l.391.391H104.3V66.559h-2.006c-1.941,0-2.019-.013-2.253-.3a1.879,1.879,0,0,0-.769-.456,1.141,1.141,0,0,1-.782-.612c-.247-.469-.247-.469.026-.951.261-.443.339-.482.938-.521.573-.039.677,0,.938.326a1.144,1.144,0,0,1,.247.821,4.832,4.832,0,0,0,0,.625c.013.117.469.156,1.837.156h1.811l.586-.573.586-.56,1.628-.091c2.162-.117,2.345-.2,2.566-.964a8.662,8.662,0,0,0,.182-1.615c0-.951-.026-1.029-.391-1.407-.547-.547-1.394-.677-3.673-.573-1.55.078-1.863.065-1.863-.091,0-.1.156-1.029.326-2.071a10.289,10.289,0,0,0,.156-4.272,2.147,2.147,0,0,0-.547-.7c-.339-.261-.521-.3-1.563-.287a19.007,19.007,0,0,0-3.152.43,23.528,23.528,0,0,1-2.4.4,4.936,4.936,0,0,1-3.087-1.5c-.7-.573-1.342-1.12-1.446-1.211a14.775,14.775,0,0,0-2.227-1.381c-2.045-1.042-2.853-2.305-2.488-3.908a1.684,1.684,0,0,1,1.094-1.368,19.09,19.09,0,0,1,4.976.039c2.683.261,5.484.469,6.187.469.521,0,.625-.052,1.133-.612a3.787,3.787,0,0,0,.638-.886,1.187,1.187,0,0,1,.169-.326A6.041,6.041,0,0,0,102.4,40.4a5.445,5.445,0,0,0-.4-3.23c-.365-.573-2.384-1.42-4.533-1.915a48.571,48.571,0,0,0-7.815-.677c-1.641-.052-3.009-.1-3.035-.13-.052-.052-.221-1.276-.482-3.517a18.208,18.208,0,0,0-.795-4.077,2.125,2.125,0,0,1-.182-.586A14.546,14.546,0,0,0,83.966,23.9c-.13-.208-.287-.482-.339-.586a3.949,3.949,0,0,0-.716-1.016.194.194,0,0,1-.1-.182,7.113,7.113,0,0,0-1.042-1.407c-.234-.221-1.485-1.771-2.058-2.54-.365-.495-.716-.964-.782-1.042a2.383,2.383,0,0,1-.2-.326c-.052-.1-.208-.365-.352-.586a3.967,3.967,0,0,1-.755-2.527,21.389,21.389,0,0,1,.964-6.1c.169-.56.169-.56-.247-.873a4.892,4.892,0,0,0-2.657-.729,3.1,3.1,0,0,1-1.25-.208c-.456-.234-1.263-.951-1.263-1.133A6.851,6.851,0,0,0,71.4,2.566a4.7,4.7,0,0,0-2.657-.039c-.378.13-.534.313-.938,1.133a32.573,32.573,0,0,0-1.628,4.676c-.3,1.055-.56,1.967-.716,2.41-.065.221-.208.664-.313.99-.208.664-.56.912-1.68,1.159-1.537.339-2.553-.716-3.243-3.348-.117-.456-.3-1.185-.417-1.628a10.939,10.939,0,0,0-1.811-4.324,1.009,1.009,0,0,0-.977-.469,4.463,4.463,0,0,0-2.5.925c-.469.482-.469.964-.039,3.048a15.57,15.57,0,0,1,.326,3.934A10.5,10.5,0,0,1,54.594,14c-.2.6-.586,1.107-.834,1.107a.129.129,0,0,0-.13.117c0,.065-.156.182-.365.261-.326.13-1.485.742-2.631,1.394a9.134,9.134,0,0,0-1.563,1.055,1.313,1.313,0,0,1-.43.3,16.793,16.793,0,0,0-1.706,1.6,21.055,21.055,0,0,0-3.7,4.65,33.442,33.442,0,0,0-1.12,3.4c-.065.274-.208.391-.755.573a8.675,8.675,0,0,1-1.355.287c-.638.065-.69.052-1.2-.443-.951-.912-1.029-1.224-1.12-4.012-.1-3.191-.234-4.077-.7-4.455a13.547,13.547,0,0,0-6.408-2.019,6.491,6.491,0,0,0-2.605.547c-.1.065-.69.365-1.3.677-2.175,1.107-4.051,2.618-4.468,3.608a51.015,51.015,0,0,0-.208,5.223c-.039,2.683-.13,4.963-.182,5.041A21.2,21.2,0,0,1,18.918,34.4c-.143.052-.716.313-1.276.573a7.7,7.7,0,0,1-1.2.456.3.3,0,0,0-.247.117,4.164,4.164,0,0,1-.886.391,9.107,9.107,0,0,0-3.556,1.9,3.72,3.72,0,0,0-1.107,2.488,4.7,4.7,0,0,0,1.342,2.84c.274.2.378.2.951.013.352-.1,1.016-.3,1.485-.443s1.263-.4,1.758-.573c.912-.313,1.615-.521,3.165-.951a7.371,7.371,0,0,1,1.693-.234l.873-.013-.039.782c-.026.43-.156,1.55-.287,2.475s-.352,2.345-.456,3.126a33.835,33.835,0,0,1-1.185,5.21c-.391,1.2-.99,2.892-1.159,3.256-.091.221-.3.716-.469,1.107a45.366,45.366,0,0,1-2.7,5.536c-.521.612-.951.782-2.11.782a3.475,3.475,0,0,1-1.5-.208c-.208-.117-1-.521-1.758-.886s-1.459-.729-1.563-.795c-.4-.247-2.436-1.2-3.061-1.433-1.12-.4-1.459-.417-1.758-.091A4.024,4.024,0,0,0,3,62.092c-.078.795-.065.808.43,1.263a9.263,9.263,0,0,0,1.745,1.068c.677.326,1.342.651,1.459.716a1.187,1.187,0,0,0,.43.117A6.236,6.236,0,0,1,9.383,66.52a2.236,2.236,0,0,1,.586,2.436,2.335,2.335,0,0,1-1.055,1.485,22.309,22.309,0,0,1-5.3,1.329,8.32,8.32,0,0,0-2.24.534,1.648,1.648,0,0,0-.755,1.316A11.728,11.728,0,0,0,1.282,76.3c.169.274.247.3.834.234a14.4,14.4,0,0,0,2.475-.6c.221-.065,1-.287,1.732-.482L7.677,75.1l.729.261c1.342.443,1.368.508,1.5,2.735.13,2.553.443,4.924.651,4.989a2.195,2.195,0,0,1,.521.43c.365.352.417.365,1.667.365h1.29l1,1.042c.873.886,1.081,1.042,1.446,1.042.625,0,.912.208,1.016.716.13.716-.026,1.094-.547,1.316-.729.3-1.3.065-1.485-.625-.078-.287-.117-.56-.065-.6a5.007,5.007,0,0,0-.938-1.094l-1.016-1.016H12.418c-.925,0-1.055.026-1.329.326s-.3.378-.169,1.081A5.673,5.673,0,0,1,11,87.465a1.21,1.21,0,0,0,.208.99.986.986,0,0,1,.182.808.808.808,0,0,0,.078.6A6.652,6.652,0,0,0,13.473,90c1.824,0,1.85,0,2.188-.339.3-.3.43-.339.938-.274.729.078.834.182.912.9.091.782-.234,1.172-.964,1.2a1.1,1.1,0,0,1-.86-.287c-.287-.274-.4-.287-2.423-.287-1.811,0-2.149-.026-2.332-.221-.208-.208-.221-.143-.261.9-.039,1.094-.026,1.12.365,1.524l.417.4H13.46c1.355,0,2.006-.052,2.006-.143,0-.247.573-.625.951-.638a1.15,1.15,0,0,1,1.068,1.55.858.858,0,0,1-.534.6.994.994,0,0,1-1.316-.274c-.274-.3-.352-.313-2.227-.313H11.454l-.417.391c-.391.365-.417.417-.352,1.2a20.852,20.852,0,0,0,.86,4.194,2.254,2.254,0,0,1,.1.56c-.039.026-1.355.247-2.1.339-.287.039-.391-.143-.638-1.146a27.481,27.481,0,0,1-.729-9.378,26.864,26.864,0,0,0-.078-6.109,20.866,20.866,0,0,1-.586-4.663,12.256,12.256,0,0,0-.078-1.628c-.091-.339-.313-.326-1.42.1a11.606,11.606,0,0,1-3.934.873C.018,79.1-.542,78.66-1.467,76.2a9.825,9.825,0,0,1,0-4.689c.56-1.081,1.771-1.719,4.1-2.149.651-.117,1.6-.3,2.123-.4a9.813,9.813,0,0,1,1.263-.182c.391,0,1.368-.378,1.368-.521A3.035,3.035,0,0,0,6.075,67.6a.89.89,0,0,1-.43-.2,1.116,1.116,0,0,0-.547-.2.481.481,0,0,1-.365-.117.823.823,0,0,0-.417-.2,10.327,10.327,0,0,1-2.8-1.9,4.147,4.147,0,0,1-1.29-2.54,9.342,9.342,0,0,1,.821-2.97,4.8,4.8,0,0,1,1.407-1.863c.4-.287.534-.313,2.058-.313a5.308,5.308,0,0,1,2.019.2,1.8,1.8,0,0,0,.482.2,22.527,22.527,0,0,1,3.569,1.732A11.417,11.417,0,0,0,13.473,60.8,14.773,14.773,0,0,0,15.4,57.337a10.476,10.476,0,0,1,.443-1.107,10.177,10.177,0,0,0,.443-1.068c.039-.143.2-.586.352-.977.508-1.342.664-1.758.808-2.214a1.739,1.739,0,0,1,.247-.573.768.768,0,0,0,.117-.43,2.737,2.737,0,0,1,.182-.782,28.328,28.328,0,0,0,.99-5.562c0-.664-.026-.742-.221-.664a5.213,5.213,0,0,1-.625.2c-.208.065-.6.182-.847.274s-.664.221-.912.313c-2.67.938-4.4,1.185-5.379.782A5.238,5.238,0,0,1,8.55,42.345,8.434,8.434,0,0,1,8.511,38.4a6.362,6.362,0,0,1,.86-1.8c.065,0,.1-.052.1-.13a3.316,3.316,0,0,1,1.042-1.042.12.12,0,0,0,.13-.117c0-.065.117-.169.261-.208a1.357,1.357,0,0,0,.43-.234,10.378,10.378,0,0,1,2.67-1.185c.43-.156,2.162-.873,3.217-1.316.221-.091.782-.352,1.263-.573l.873-.4.039-4.455.039-4.468.443-.9c1.081-2.214,4.038-4.39,7.932-5.861a17.954,17.954,0,0,1,5.953.052c2.7.742,4.207,1.433,5.158,2.371.99.977,1.055,1.185,1.133,4.4a21.549,21.549,0,0,0,.13,2.605,20.783,20.783,0,0,1,2.488-4.429c.039-.039.339-.391.664-.782a36.652,36.652,0,0,1,3.321-3.374A25.974,25.974,0,0,1,51.39,13.6l.938-.495v-.716A39.028,39.028,0,0,0,51.859,7.2a12.531,12.531,0,0,1-.182-2.227c0-1.381.013-1.433.4-1.967a5.655,5.655,0,0,1,2.188-1.824c.847-.43.886-.443,2.553-.456,1.628-.013,1.719,0,2.227.339A3.947,3.947,0,0,1,60.4,2.592c0,.078.052.143.1.143.1,0,.274.352.742,1.5.169.4.716,2.045,1.042,3.061.1.326.287,1.042.417,1.589A3.352,3.352,0,0,0,63.035,9.9a12.355,12.355,0,0,0,.821-2.605c.365-1.3.612-2.149.795-2.631C65.7,1.771,66.291.86,67.463.247,67.88.039,68.232,0,69.9,0c1.954,0,2.826.156,3.2.573a2.026,2.026,0,0,0,.391.287,1.3,1.3,0,0,1,.378.378,3.815,3.815,0,0,0,.365.469,5.1,5.1,0,0,1,.456.6A8.789,8.789,0,0,0,75.3,3.1a1.036,1.036,0,0,0,.99.417c1.876,0,3.895.977,4.572,2.214.326.612.156,2.918-.339,4.494a14.646,14.646,0,0,0-.365,3.348,2.59,2.59,0,0,0,.443,1.485,7.831,7.831,0,0,0,.625.964c.117.117.3.339.4.469.261.326,1.641,1.967,2.032,2.423a1.89,1.89,0,0,1,.313.43,1.407,1.407,0,0,0,.326.378,1.109,1.109,0,0,1,.326.43.823.823,0,0,0,.26.365.752.752,0,0,1,.261.417c0,.091.052.169.1.169s.182.13.274.3a7.051,7.051,0,0,0,.4.677c.13.221.456.834.729,1.368s.521,1.081.586,1.211a21.431,21.431,0,0,1,1.3,5.2c.221,1.433.352,1.941.508,1.993a31.95,31.95,0,0,0,3.829.326,16.107,16.107,0,0,1,2.1.2,15.482,15.482,0,0,0,1.615.2,17.765,17.765,0,0,1,4.52,1.185.434.434,0,0,0,.339.117,4.1,4.1,0,0,1,1.811,1,4.036,4.036,0,0,1,1.563,2.84,6.318,6.318,0,0,1-.013,3.413,7.516,7.516,0,0,1-2.4,4.741l-1.029,1.029H99.883c-.834,0-2.188-.065-3.009-.13s-2.514-.182-3.751-.261-2.423-.169-2.605-.208c-.339-.065-.339-.065-.091.143a8.509,8.509,0,0,0,1.042.612,17.738,17.738,0,0,1,3.022,2.032c.86.755,1.641,1.394,1.837,1.511a7.631,7.631,0,0,0,2.774-.234,17.325,17.325,0,0,1,3.152-.534,4.261,4.261,0,0,1,4.3,2.292c.482,1.016.508,1.211.534,3.282l.013,1.85.847.065a5.381,5.381,0,0,1,2.345.677c0,.052.078.1.169.1.247,0,1.211,1.029,1.537,1.628.247.456.287.716.274,2.084a10.118,10.118,0,0,1-.677,3.934c-.4.638-1.889,1.081-3.595,1.081h-1.2l-.052,3.23c-.052,2.787-.091,3.282-.287,3.673a2.1,2.1,0,0,1-.417.56c-.287.169-.208.313.326.625.677.378.925.729,1.5,2.2a28.9,28.9,0,0,0,1.784,3.647,41.236,41.236,0,0,1,2.006,4.1c.091.221.352.768.56,1.237s.482,1.107.612,1.433.3.768.391.977c.69,1.589,2.123,5.874,2.892,8.6.56,1.993.651,2.332,1.159,4.429a6.826,6.826,0,0,0,.313,1.042,5.6,5.6,0,0,1,.182,1.172c.052.573.169,1.511.274,2.084a59.115,59.115,0,0,1,.521,9.769,55.06,55.06,0,0,1-.534,9.508,60.471,60.471,0,0,1-1.576,7.1c-.261.925-1.863,5.94-2.071,6.448-.078.221-.247.638-.365.951s-.287.768-.391,1.042-.352.9-.534,1.394A39.559,39.559,0,0,1,110,148.306a20.7,20.7,0,0,1-5.2,4.976,21.852,21.852,0,0,1-3.009,1.459.474.474,0,0,0-.3.117,13.151,13.151,0,0,1-1.628.586c-.821.26-1.667.547-1.889.625A70.987,70.987,0,0,1,87.692,156.082Zm23.068-45.12a.23.23,0,0,0-.352-.287.25.25,0,0,0,.143.43A.308.308,0,0,0,110.759,110.963Zm-.13-5.471a.23.23,0,0,0-.352-.287.25.25,0,0,0,.143.43A.308.308,0,0,0,110.629,105.492Zm-.495-5.3c.026-.091-.078-.156-.221-.156-.274,0-.352.143-.182.313C109.848,100.464,110.069,100.373,110.134,100.191Zm-93.5-6.356a.189.189,0,0,0-.2-.182c-.2,0-.274.274-.117.43C16.456,94.2,16.638,94.056,16.638,93.834Zm0-3.374a.2.2,0,1,0-.2.2A.2.2,0,0,0,16.638,90.461Zm0-3.53a.189.189,0,0,0-.2-.182c-.2,0-.274.274-.117.43C16.456,87.3,16.638,87.152,16.638,86.931Zm83.075-17.4c-.078-.234-.365-.274-.365-.052a.206.206,0,0,0,.208.208C99.675,69.685,99.74,69.62,99.714,69.529Zm-.078-4.95c-.117-.117-.2-.117-.313,0s-.13.2.026.287C99.61,65.022,99.844,64.788,99.636,64.58Z" transform="translate(1.75)"/><path d="M4929.2,11083.713c-.508-.194-.651-.469-.651-1.236v-.756h-2.11c-2.058,0-2.136.014-2.409.313a1.058,1.058,0,0,1-1.342.234,1.151,1.151,0,1,1,1.328-1.85l.391.391h2.267c2.241,0,2.267,0,2.462.313a1.013,1.013,0,0,0,.639.39c.716.131,1.12.535,1.12,1.095a1.029,1.029,0,0,1-.99,1.134A1.646,1.646,0,0,1,4929.2,11083.713Zm.755-1.041c.026-.1-.065-.17-.221-.17s-.274.078-.274.209C4929.457,11082.945,4929.86,11082.906,4929.952,11082.672Zm-6.565-1.316a.355.355,0,0,0-.052-.286c-.092-.144-.156-.155-.273-.039a.271.271,0,0,0-.065.286A.223.223,0,0,0,4923.387,11081.355Z" transform="translate(-4857.925 -10935.706)"/><path d="M5692.6,8357.266a1.584,1.584,0,0,1-.43-2.385c.183-.247.391-.456.469-.456a3.036,3.036,0,0,0,.118-1.186c0-1.759-.091-1.68,2.214-1.68h1.954V8348.3h-1.473a4.05,4.05,0,0,1-1.628-.156,4.377,4.377,0,0,1-.156-1.693v-1.537h-3.387v1.941c0,2.423.039,2.357-1.576,2.357-1.133,0-1.185.014-1.5.378a1.708,1.708,0,0,1-2.449-.065,2.128,2.128,0,0,1,0-2.019,1.944,1.944,0,0,1,1.315-.639,1.894,1.894,0,0,1,1.342.769c.117.222.26.273.847.273h.716v-1.928c0-1.719.026-1.967.235-2.148s.573-.223,2.345-.223h2.11v-2.474h-6.161l-.364.4a1.576,1.576,0,0,1-2.4-.143,1.4,1.4,0,0,1-.248-1c0-.678.026-.756.508-1.159a1.346,1.346,0,0,1,1.056-.442,1.212,1.212,0,0,1,1.042.455l.469.457h6.1v-2.475h-6.122l-.377.43c-.352.377-.443.416-1.172.416-.651-.013-.834-.064-1.068-.3a1.733,1.733,0,0,1,.795-2.826,1.994,1.994,0,0,1,1.628.665l.2.313h6.122v-2.605h-2.136c-1.771,0-2.176-.039-2.345-.209s-.209-.547-.209-2.084v-1.875h-.7c-.534,0-.755.051-.886.234a1.681,1.681,0,0,1-2.67.025,1.822,1.822,0,0,1,.313-2.2,1.459,1.459,0,0,1,1.016-.273,1.163,1.163,0,0,1,1.121.456c.443.456.443.456,1.615.456a3.074,3.074,0,0,1,1.341.156,6.085,6.085,0,0,1,.156,2.084v1.928h3.387v-1.562c0-1.408.026-1.563.248-1.693a7.146,7.146,0,0,1,1.628-.131h1.381v-3.256h-1.876c-2.345,0-2.292.039-2.292-1.576,0-1.146-.013-1.186-.378-1.5a2.055,2.055,0,0,1-.534-.769,1.187,1.187,0,0,1,.1-1.028,1.574,1.574,0,0,1,2.241-.795,1.364,1.364,0,0,1,.781,1.406c0,.651-.391,1.395-.742,1.395-.117,0-.17.221-.17.781v.781h2.006c1.707,0,2.019.026,2.084.208a20.657,20.657,0,0,1,.079,2.279v2.071h2.735v-3.061c0-2.449-.039-3.061-.169-3.061-.339,0-.769-.625-.834-1.2a1.415,1.415,0,0,1,.639-1.537,1.664,1.664,0,0,1,2.331.625c.3.77-.117,2.111-.664,2.111a15.041,15.041,0,0,0-.13,3.061v3.061h2.6v-3.048c0-2.956-.013-3.062-.26-3.139a2.038,2.038,0,0,1-.782-1.394,1.884,1.884,0,0,1,.9-1.342,1.531,1.531,0,0,1,1.406-.026c.69.3.86.587.873,1.433.013.7-.026.795-.417,1.146l-.417.378v5.991h2.475v-2.058c0-1.837.026-2.1.234-2.28s.561-.221,2.149-.221h1.915v-.781c0-.43-.053-.781-.13-.781-.313,0-.69-.586-.755-1.16a1.48,1.48,0,0,1,.651-1.576,1.664,1.664,0,0,1,2.331.625c.3.77-.169,2.111-.755,2.111-.13,0-.169.312-.169,1.354,0,1.615.183,1.512-2.37,1.512h-1.8v3.256h1.446a7.618,7.618,0,0,1,1.693.131c.221.13.248.285.248,1.693v1.563h3.256v-1.863c0-2.331-.013-2.3,1.615-2.3,1.12,0,1.133,0,1.589-.456a1.183,1.183,0,0,1,1.133-.456,1.539,1.539,0,0,1,1.654,1.537,1.642,1.642,0,0,1-2.97.912c-.13-.17-.352-.234-.873-.234h-.7l-.039,1.953c-.026,1.576-.078,1.994-.234,2.084a12.591,12.591,0,0,1-2.306.131h-2.123v2.605h6.03l.443-.457a1.455,1.455,0,0,1,1.784-.391,1.63,1.63,0,0,1,.717,2.357,1.694,1.694,0,0,1-2.579.17l-.326-.377h-6.07v2.475h6.03l.5-.457a1.347,1.347,0,0,1,1.107-.455,1.212,1.212,0,0,1,1.107.508c.417.416.508.6.508,1a1.626,1.626,0,0,1-2.762,1.238l-.364-.4h-6.122v2.474h4.39l.143.326a9.072,9.072,0,0,1,.156,2.148v1.824h.665c.573,0,.7-.052.977-.391a1.613,1.613,0,0,1,2.879.873,1.121,1.121,0,0,1-.391,1.146c-.417.481-.482.508-1.172.508a1.242,1.242,0,0,1-1.172-.417c-.417-.4-.469-.417-1.563-.417-1.654,0-1.654-.014-1.654-2.409v-1.89h-3.256v1.537a1.33,1.33,0,0,1-1.85,1.85h-1.537v3.257h1.875a18.055,18.055,0,0,1,2.084.077c.169.066.208.313.208,1.33v1.236l.469.4a1.234,1.234,0,0,1,.535,1.055,1.481,1.481,0,0,1-.73,1.59,1.27,1.27,0,0,1-1.576.025,1.435,1.435,0,0,1-.782-1.5,1.162,1.162,0,0,1,.456-1.055,1.219,1.219,0,0,0,.456-1.16v-.7h-1.94c-1.6,0-1.98-.039-2.149-.208s-.209-.56-.209-2.279V8348.3h-2.475v3.062c0,2.956.013,3.061.273,3.19a1.735,1.735,0,0,1,.573,1.654,1.622,1.622,0,0,1-1.329,1.29,1.773,1.773,0,0,1-1.863-1.642,2.206,2.206,0,0,1,.729-1.342c.313-.234.313-.247.313-3.229V8348.3h-2.6v5.966l.456.456a1.16,1.16,0,0,1,.456,1.055,1.435,1.435,0,0,1-.781,1.5,1.27,1.27,0,0,1-1.407.092,1.41,1.41,0,0,1-.873-1.537c0-.743.026-.809.5-1.211l.481-.418v-5.9h-2.735v2.123a7.1,7.1,0,0,1-.157,2.28,6.12,6.12,0,0,1-2.083.155h-1.928v.7a1.219,1.219,0,0,0,.456,1.16,1.218,1.218,0,0,1,.456,1.16c0,.6-.052.754-.352,1.041a2.194,2.194,0,0,1-1.316.625A2.075,2.075,0,0,1,5692.6,8357.266Zm1.068-1.395c0-.312-.339-.456-.443-.183-.1.247.013.43.26.43C5693.595,8356.118,5693.673,8356,5693.673,8355.871Zm8.076,0a.421.421,0,0,0-.117-.326c-.156-.1-.443.273-.338.443A.241.241,0,0,0,5701.749,8355.871Zm3.842.117c.13-.209-.208-.561-.364-.4s-.026.534.156.534A.3.3,0,0,0,5705.591,8355.988Zm8.076,0c.1-.17-.183-.547-.339-.443a.421.421,0,0,0-.117.326A.241.241,0,0,0,5713.667,8355.988Zm-27.38-7.347a.284.284,0,0,0-.417-.339c-.221.131-.091.521.169.521A.294.294,0,0,0,5686.287,8348.642Zm34.843-.091c.052-.248-.248-.4-.5-.248s-.052.547.222.5A.358.358,0,0,0,5721.13,8348.551Zm-34.9-8.271c-.2-.234-.365-.234-.469.025a.272.272,0,0,0,.442.287C5686.34,8340.488,5686.34,8340.41,5686.235,8340.279Zm34.777,0c-.117-.144-.2-.156-.325-.039s-.156.2-.039.326.2.156.325.039S5721.13,8340.41,5721.013,8340.279Zm-34.712-3.634a.226.226,0,0,0-.13-.286c-.248-.092-.508.143-.391.338A.292.292,0,0,0,5686.3,8336.646Zm34.83-.026c.065-.221-.338-.377-.521-.2a.238.238,0,0,0-.039.287A.348.348,0,0,0,5721.13,8336.619Zm-34.843-8.036a.26.26,0,0,0-.43-.286c-.078.117-.117.26-.065.338A.279.279,0,0,0,5686.287,8328.583Zm34.778,0a.26.26,0,0,0-.43-.286c-.078.117-.117.26-.065.338A.28.28,0,0,0,5721.065,8328.583Zm-27.418-7.464a.235.235,0,0,0-.469,0c-.026.156.039.222.234.222S5693.673,8321.275,5693.647,8321.119Zm8.1.039c0-.26-.248-.4-.417-.234a.246.246,0,0,0-.053.273C5701.41,8321.406,5701.749,8321.367,5701.749,8321.158Zm3.908,0a.288.288,0,0,0-.508-.156c-.17.2-.053.339.273.339A.211.211,0,0,0,5705.656,8321.158Zm8.049-.039a.234.234,0,1,0-.468,0c-.026.156.039.222.234.222S5713.732,8321.275,5713.706,8321.119Z" transform="translate(-5610.418 -8211.146)"/><path d="M4646.7,10867.852a1.479,1.479,0,0,1-.7-1.445,1.171,1.171,0,0,1,.378-1.042c.3-.312.456-.364,1.094-.364.612,0,.795.064,1.055.325s.326.443.326,1.134c0,1.068-.273,1.367-1.264,1.42A4.062,4.062,0,0,1,4646.7,10867.852Zm1.276-1.3c.053-.5-.234-.77-.69-.652a.575.575,0,0,0-.4.4c-.117.455.156.742.651.69C4647.889,10866.953,4647.94,10866.9,4647.979,10866.551Z" transform="translate(-4585.461 -10723.479)"/><path d="M4921.869,10890.813a1.123,1.123,0,0,1-.5-1.381,1.171,1.171,0,0,1,1.94-.456c.3.326.326.326,2.4.326,2.006,0,2.11-.013,2.37-.286a1.385,1.385,0,0,1,1.811.025,1.113,1.113,0,0,1-.078,1.551,1.847,1.847,0,0,1-.638.352,1.565,1.565,0,0,1-1.211-.521c-.143-.169-.534-.208-2.318-.208-1.967,0-2.149.026-2.214.233a.761.761,0,0,1-.482.392A1.013,1.013,0,0,1,4921.869,10890.813Zm.781-1.055c.013-.064-.078-.144-.2-.17-.143-.025-.234.04-.234.17C4922.221,10889.979,4922.611,10889.992,4922.65,10889.758Zm6.578.039c-.091-.247-.5-.287-.5-.053,0,.131.117.209.273.209S4929.254,10889.889,4929.229,10889.8Z" transform="translate(-4857.202 -10746.805)"/><path d="M601.879,7582.365a3.308,3.308,0,0,0-.612-.391c-.065,0-2.071-1.315-2.149-1.42-.039-.039-.469-.417-.977-.82a19.652,19.652,0,0,1-3.452-3.635.117.117,0,0,0-.117-.117,19.075,19.075,0,0,1-2.227-3.529l-.664-1.329c-.143-.273-.925-2.657-1.146-3.478a20.585,20.585,0,0,1-.534-5.21,19.466,19.466,0,0,1,1.276-7.62c.247-.664,1.524-3.27,1.85-3.777a6.112,6.112,0,0,0,.352-.586c.052-.1.521-.781,1.068-1.5a21.65,21.65,0,0,1,3.66-3.882,7.588,7.588,0,0,0,.886-.768c.026-.065.13-.1.234-.1s.182-.053.182-.117a15.135,15.135,0,0,1,3.035-1.876,26.3,26.3,0,0,1,7.815-2.618,39.889,39.889,0,0,1,8.18-.013,27.543,27.543,0,0,1,9.17,3.321c.365.208.782.456.951.534s.287.208.287.273.091.1.2.1.2.052.2.1.169.2.378.326a28.134,28.134,0,0,1,4.455,4.337,5.794,5.794,0,0,0,.664.808c.065.026.1.131.1.234s.052.183.1.183.182.13.274.3a7,7,0,0,0,.4.677c.13.222.547,1,.925,1.759s.716,1.472.782,1.589a28.825,28.825,0,0,1,1.237,4.207,34.463,34.463,0,0,1,.013,8.271,31.653,31.653,0,0,1-1.25,4.142c-.052.117-.391.808-.729,1.524a20.376,20.376,0,0,1-4.481,6.174,26.763,26.763,0,0,1-3.921,3.179c-.1.052-.365.208-.586.352a5.381,5.381,0,0,1-1.55.769,14.6,14.6,0,0,1,.078-1.615c.065-.86.091-2.345.052-3.309l-.078-1.745.469-.431a2.567,2.567,0,0,1,.521-.442,23.568,23.568,0,0,0,1.745-1.784,7.424,7.424,0,0,0,1.172-1.576.22.22,0,0,1,.1-.183,9.892,9.892,0,0,0,1.2-2.058,22.62,22.62,0,0,0,1.381-3.908,21,21,0,0,0,0-6.513,21.862,21.862,0,0,0-1.12-3.412,17.779,17.779,0,0,0-2.227-3.621.133.133,0,0,1-.117-.144,21.778,21.778,0,0,0-4.3-3.934c-.1-.052-.365-.208-.586-.352a20.9,20.9,0,0,0-6.877-2.527,23.827,23.827,0,0,0-6.239,0,15.243,15.243,0,0,0-3.165.847.556.556,0,0,1-.339.118,1.678,1.678,0,0,0-.6.182c-.2.1-.768.378-1.276.612a20.07,20.07,0,0,0-4.611,3.178,17.461,17.461,0,0,0-5.288,9.64,20.98,20.98,0,0,0,.1,5.991,17.713,17.713,0,0,0,5.8,9.587l.716.612.026,2.917c0,1.59.065,3.127.117,3.4.1.431.078.482-.13.482A2.289,2.289,0,0,1,601.879,7582.365Z" transform="translate(-582.292 -7441.171)"/><path d="M4669.675,10147.12a1.155,1.155,0,0,1-.247-1.823c.326-.3.326-.326.326-2.462,0-2.058-.013-2.175-.273-2.358a1.011,1.011,0,0,1-.339-.768c-.065-.508-.026-.639.26-.926a1.128,1.128,0,0,1,1.707.066,1.04,1.04,0,0,1,.013,1.5c-.312.417-.326.481-.326,2.579,0,1.576.039,2.176.17,2.254a1.2,1.2,0,0,1-.2,1.979A1.1,1.1,0,0,1,4669.675,10147.12Zm.729-.99c0-.143-.052-.261-.117-.261a.267.267,0,0,0-.208.392C4670.209,10146.482,4670.4,10146.4,4670.4,10146.13Zm.052-6.447a.226.226,0,0,0-.13-.286c-.247-.092-.364.025-.273.286S4670.353,10139.93,4670.457,10139.683Z" transform="translate(-4608.25 -10006.368)"/><path d="M4922.731,10502.563a.777.777,0,0,1-.651-.7,1.171,1.171,0,0,1,1.081-1.55c.352,0,.938.3.938.5,0,.117.534.156,2.214.156h2.214v-.717c0-.586.052-.756.326-1.041a1.188,1.188,0,0,1,2.019.82,1.331,1.331,0,0,1-1.107,1.2.786.786,0,0,0-.612.325l-.248.326h-2.344a13.857,13.857,0,0,0-2.332.1C4924.229,10502.394,4923.369,10502.732,4922.731,10502.563Zm.651-1.081c0-.287-.377-.234-.43.039-.039.182.014.234.2.2A.275.275,0,0,0,4923.382,10501.482Zm6.578-1.434a.31.31,0,0,0-.144-.209c-.183-.1-.43.145-.325.326C4929.582,10500.31,4929.96,10500.219,4929.96,10500.049Z" transform="translate(-4857.907 -10362.111)"/><path d="M4922.909,10114.177a1.2,1.2,0,0,1-.469-1.341c.065-.378.169-.5.547-.665a1.458,1.458,0,0,1,.729-.116c.2.051.521-.2,1.354-1.043l1.094-1.094h1.316c1.29,0,1.315-.014,1.693-.391a1.18,1.18,0,0,1,1.732,1.6,1.155,1.155,0,0,1-1.732-.039c-.365-.365-.43-.391-1.407-.391h-1.029l-1.016,1.016c-.769.77-1,1.095-1,1.368A1.183,1.183,0,0,1,4922.909,10114.177Zm.873-.964c.026-.1-.065-.17-.222-.17s-.273.078-.273.209C4923.287,10113.487,4923.69,10113.447,4923.782,10113.213Zm6.46-2.761c.039-.065-.013-.183-.1-.261-.208-.17-.417.025-.273.247A.211.211,0,0,0,4930.242,10110.452Z" transform="translate(-4858.268 -9977.449)"/><path d="M1277.245,8205.762a14.4,14.4,0,0,1-4.012-11.5,14.549,14.549,0,0,1,2.722-7.112,17.147,17.147,0,0,1,4.168-3.83,18.131,18.131,0,0,1,5.953-2.162,18.386,18.386,0,0,1,7.555.5,15.9,15.9,0,0,1,8.232,5.939,14.374,14.374,0,0,1,1.055,14.328,15.147,15.147,0,0,1-2.7,3.8c-.651.7-1.055.938-1.055.626a14.712,14.712,0,0,0-3.308-3.322,1.557,1.557,0,0,1-.56-.43c-.039-.092.221-.481.586-.859a8.469,8.469,0,0,0,2.5-5.926c-.013-4.338-2.866-7.79-7.4-8.949a12.621,12.621,0,0,0-5.236.208,11.267,11.267,0,0,0-4.142,2.514c-.1.131-.286.326-.4.456a9.179,9.179,0,0,0-1.745,3.088,10.843,10.843,0,0,0,.026,5.209,11.2,11.2,0,0,0,1.811,3.074c.156.17.391.457.534.625.286.326.365.795.143.795a9.432,9.432,0,0,0-2.4,1.811c-.156.184-.378.43-.495.561a.95.95,0,0,0-.234.313,2.61,2.61,0,0,1-.833.964A3.057,3.057,0,0,1,1277.245,8205.762Z" transform="translate(-1256.551 -8074.401)"/><path d="M4937.2,9535.081a1.017,1.017,0,0,1-.43-.378c-.13-.248-.261-.273-1.563-.273h-1.419l-1.029-1.043c-.925-.924-1.094-1.041-1.524-1.041a1.282,1.282,0,0,1-1.237-1.172,1.3,1.3,0,0,1,1.211-1.173,1.074,1.074,0,0,1,1.133,1.106c0,.469.091.612.938,1.46l.938.95h1.277c.938,0,1.276-.039,1.276-.156,0-.2.586-.494.938-.494a1.555,1.555,0,0,1,1.068.585,1.661,1.661,0,0,1-.143,1.355A1.465,1.465,0,0,1,4937.2,9535.081Zm.716-1c-.052-.287-.287-.261-.338.013a.156.156,0,0,0,.169.209A.165.165,0,0,0,4937.919,9534.078Zm-6.551-3.035a.125.125,0,0,0-.222-.026.24.24,0,0,0-.039.286.125.125,0,0,0,.222.027A.241.241,0,0,0,4931.368,9531.043Z" transform="translate(-4865.762 -9405.87)"/><path d="M4680.651,9228.766a1.247,1.247,0,0,1-.651-1.055,1,1,0,0,1,.391-.807l.391-.365v-2.1c0-1.576-.039-2.109-.169-2.187a1.549,1.549,0,0,1-.612-1.121,1.339,1.339,0,0,1,1.146-1.133,1.409,1.409,0,0,1,.794.338,1.182,1.182,0,0,1,.078,1.746c-.325.3-.325.338-.325,2.41s0,2.109.325,2.41a1.177,1.177,0,0,1-.013,1.68A1.552,1.552,0,0,1,4680.651,9228.766Zm.781-1.016c0-.1-.117-.2-.26-.2-.261,0-.338.144-.169.3S4681.433,9227.945,4681.433,9227.75Zm-.052-6.643c-.065-.183-.118-.2-.273-.064s-.17.207-.053.352C4681.25,9221.628,4681.5,9221.406,4681.381,9221.107Z" transform="translate(-4619.019 -9099.906)"/><path d="M1963.435,8840.377a6.95,6.95,0,0,1-4.09-2.84,6.427,6.427,0,0,1,.378-7.033,7.192,7.192,0,0,1,9.248-1.459,16.958,16.958,0,0,1,1.993,2.019,6.643,6.643,0,0,1,.286,5.771,7.775,7.775,0,0,1-2.839,2.943A6.853,6.853,0,0,1,1963.435,8840.377Z" transform="translate(-1932.946 -8712.989)"/><path d="M4936.839,9252.784a1.224,1.224,0,0,1-.469-1.3.493.493,0,0,0-.091-.547c-.182-.209-.43-.236-2.124-.236h-1.914l-.4.392a1.117,1.117,0,0,1-1.706.013,1.019,1.019,0,0,1,0-1.589,1.118,1.118,0,0,1,1.706.013l.4.391h2.253c2.24,0,2.267,0,2.462.314a1.094,1.094,0,0,0,.677.389c.833.157,1.16.77.9,1.721C4938.4,9252.836,4937.516,9253.058,4936.839,9252.784Zm.833-1c-.065-.326-.365-.364-.365-.053,0,.157.078.273.208.273S4937.7,9251.912,4937.672,9251.781Zm-6.551-1.6a.125.125,0,0,0-.222-.026.239.239,0,0,0-.039.286.125.125,0,0,0,.222.026A.24.24,0,0,0,4931.121,9250.18Z" transform="translate(-4865.516 -9128.653)"/><path d="M4653.321,8952.8a1.647,1.647,0,0,1-.716-1.563,2.074,2.074,0,0,1,.5-.833,1.176,1.176,0,0,1,1.094-.4c.625,0,.716.039,1.081.482a1.51,1.51,0,0,1,.208,1.784.634.634,0,0,0-.2.3c0,.182-.677.43-1.16.43A2.194,2.194,0,0,1,4653.321,8952.8Zm1.238-.926a.538.538,0,0,0-.078-.886c-.313-.222-.665-.1-.886.313-.1.2-.078.313.13.521C4654.038,8952.137,4654.286,8952.148,4654.559,8951.875Z" transform="translate(-4591.963 -8833.424)"/><path d="M4933.431,8982.123c-.534-.365-.664-.6-.6-1.094.078-.743.417-1.029,1.16-1.029.521,0,.69.053.9.326.248.325.274.325,2.345.325s2.1,0,2.4-.325a1.009,1.009,0,0,1,.885-.326c.794,0,1.172.455,1.082,1.276a1,1,0,0,1-.847,1c-.365.092-1.2-.286-1.2-.534,0-.144-.4-.183-2.163-.183h-2.162l-.456.392C4934.277,8982.4,4933.9,8982.449,4933.431,8982.123Zm.82-.912c.052-.039.026-.156-.052-.26-.117-.131-.2-.131-.326-.026-.1.078-.144.2-.1.261A.333.333,0,0,0,4934.251,8981.211Zm6.448-.13c-.065-.325-.365-.364-.365-.052,0,.156.078.273.208.273S4940.725,8981.211,4940.7,8981.081Z" transform="translate(-4868.542 -8863.033)"/><path d="M4680.651,8233.253a1.127,1.127,0,0,1-.287-1.889l.391-.4v-4l-.391-.391a1.153,1.153,0,0,1,.456-1.98c.469-.156.781-.064,1.276.364a1.266,1.266,0,0,1-.1,1.59c-.325.3-.325.339-.325,2.371s.013,2.07.325,2.422a1.209,1.209,0,0,1-.078,1.771A.98.98,0,0,1,4680.651,8233.253Zm.755-1.016a.369.369,0,0,0-.091-.261c-.118-.118-.443.169-.352.313C4681.067,8232.471,4681.406,8232.432,4681.406,8232.237Zm0-6.553c0-.182-.273-.247-.43-.091-.117.117.169.443.313.352A.328.328,0,0,0,4681.406,8225.685Z" transform="translate(-4618.992 -8117.393)"/><path d="M4931.985,8587.113a1.116,1.116,0,0,1-.5-1.667c.313-.456.43-.521,1.029-.521a.978.978,0,0,1,.833.326c.3.325.339.325,2.293.325,2.11,0,2.384-.078,2.227-.651a1.254,1.254,0,0,1,1.316-1.5.993.993,0,0,1,.9,1c.092.756-.3,1.276-.937,1.276a.65.65,0,0,0-.678.391l-.221.391h-2.319c-1.758,0-2.331.039-2.409.17a1.648,1.648,0,0,1-1.016.612A1.331,1.331,0,0,1,4931.985,8587.113Zm.755-.977c.052-.04.026-.157-.052-.261-.117-.131-.2-.131-.325-.026-.1.078-.144.2-.1.261A.334.334,0,0,0,4932.741,8586.137Zm6.448-1.511c.026-.131-.039-.223-.156-.223s-.208.118-.208.274C4938.824,8584.99,4939.123,8584.951,4939.188,8584.626Z" transform="translate(-4867.031 -8471.604)"/><path d="M4931.384,8204.93a1.015,1.015,0,0,1-.183-1.42.852.852,0,0,1,.7-.455,1.358,1.358,0,0,1,.612-.014,5.553,5.553,0,0,0,1.277-1.107l1.159-1.158h1.29c1.2,0,1.3-.027,1.589-.326.5-.534,1.758-.379,1.928.248a1.7,1.7,0,0,1-.156,1.393c-.2.234-.378.287-.873.287-.521,0-.677-.053-.9-.339-.273-.326-.352-.352-1.394-.352h-1.095l-1.016,1.016c-.82.833-1,1.081-1,1.42,0,.587-.117.808-.534,1.016A1.037,1.037,0,0,1,4931.384,8204.93Zm1.159-.781c0-.156-.378-.312-.482-.209a.328.328,0,0,0,0,.273C4932.139,8204.422,4932.543,8204.356,4932.543,8204.148Zm6.382-2.854c0-.143-.091-.26-.2-.26s-.2.117-.2.26.091.262.2.262S4938.925,8201.438,4938.925,8201.295Z" transform="translate(-4866.742 -8093.316)"/><path d="M4754.95,6382.182a1.2,1.2,0,0,1-.651-.925,1.085,1.085,0,0,1,.326-.625,1.067,1.067,0,0,0,.326-.9c0-.964.013-.977,1.315-.977h1.159v-1.824h-1.954v-1.953h-1.953v2.345h-.717c-.573,0-.769.052-1.029.325a.952.952,0,0,1-1.445-.013.788.788,0,0,1,0-1.276.988.988,0,0,1,1.406-.078,1.3,1.3,0,0,0,.665.26h.338V6374.2h2.735v-1.562h-1.758c-1.395,0-1.785.039-1.837.182a.878.878,0,0,1-.456.339.969.969,0,0,1-1.276-1.289,1.01,1.01,0,0,1,1.589-.273c.287.234.521.261,2.032.261h1.706v-1.434h-1.706c-1.628,0-1.719.014-2.1.326a1.361,1.361,0,0,1-.56.325,1.064,1.064,0,0,1-.925-1.536.883.883,0,0,1,1.511-.222c.3.313.365.326,2.045.326h1.732v-1.42l-1.328-.039-1.342-.039-.039-1.2c-.039-1.2-.039-1.211-.364-1.211a1.3,1.3,0,0,0-.665.26.969.969,0,0,1-1.654-.742.94.94,0,0,1,1.589-.69,1.175,1.175,0,0,0,.86.26c.99,0,.99,0,.99,1.381v1.224h1.953v-1.954h1.954v-1.941l-1.2-.039-1.212-.039-.039-.756a1.484,1.484,0,0,0-.352-1.081.82.82,0,0,1,0-1.289.962.962,0,0,1,1.3-.117,1.073,1.073,0,0,1,.065,1.511.665.665,0,0,0-.261.586v.43h2.475v2.735h1.433v-1.8c0-1.641-.026-1.836-.261-2.045a.969.969,0,0,1,.716-1.628.983.983,0,0,1,.717,1.628c-.234.209-.261.4-.261,2.045v1.8h1.3v-1.785c0-1.5-.039-1.81-.222-2.032a1.228,1.228,0,0,1,.039-1.459,1.036,1.036,0,0,1,1.615.769,1.224,1.224,0,0,1-.26.7c-.235.248-.261.456-.261,2.045v1.758h1.433v-2.735h2.475v-.391a1.041,1.041,0,0,0-.261-.651.972.972,0,1,1,1.315-.013,1.482,1.482,0,0,0-.3,1.016l-.04.756-1.2.039-1.211.039v1.928l1.016.039,1,.039.039.95.039.938h1.811v-1.146a2.915,2.915,0,0,1,.156-1.3,1.5,1.5,0,0,1,.782-.156,1.146,1.146,0,0,0,.886-.26,1.014,1.014,0,0,1,1.276-.052c.222.156.287.326.287.769s-.065.612-.287.769a1.106,1.106,0,0,1-1.341-.053.941.941,0,0,0-.612-.26h-.364v1.081a2.882,2.882,0,0,1-.156,1.237,2.915,2.915,0,0,1-1.3.156h-1.146v1.433h1.681c1.537,0,1.693-.026,1.849-.261a1,1,0,0,1,1.394-.13,1.07,1.07,0,0,1-.052,1.55c-.456.352-.729.339-1.2-.052-.364-.312-.469-.326-2.032-.326h-1.641v1.434h1.759c1.445,0,1.758-.04,1.758-.2,0-.221.755-.391,1.2-.26.4.13.5.3.5.938,0,.481-.052.573-.4.769a1,1,0,0,1-1.264-.208c-.2-.234-.377-.26-1.876-.26h-1.667v1.563h2.605v2.345h.391a1.047,1.047,0,0,0,.651-.26,1.014,1.014,0,0,1,1.276-.053c.222.156.287.326.287.769s-.065.612-.287.769a.983.983,0,0,1-1.329-.117c-.26-.273-.417-.325-1.042-.325h-.729v-2.345h-1.824v.82a2.051,2.051,0,0,1-.156.977,2.24,2.24,0,0,1-1.042.156h-.886v1.811l1.211.039,1.2.039.04.782c.025.56.1.833.3,1.016a1.082,1.082,0,0,1-.013,1.394.924.924,0,0,1-1.563-.716.856.856,0,0,1,.26-.677.9.9,0,0,0,.261-.651v-.43H4764.2v-2.605h-1.433v1.707c0,1.511.026,1.746.261,2.032a.92.92,0,0,1-.469,1.55c-.573.1-1.042-.13-1.133-.56-.091-.508.04-1.081.248-1.081.144,0,.183-.352.183-1.823v-1.824h-1.3v1.707c0,1.511.026,1.746.261,2.032a.908.908,0,0,1-.794,1.538.763.763,0,0,1-.69-.261,1.088,1.088,0,0,1,.052-1.329c.235-.208.261-.391.261-1.954v-1.732h-1.433v2.605h-2.475v.456c0,.313.078.481.261.586s.26.273.26.7a1.268,1.268,0,0,1-.169.717A1.573,1.573,0,0,1,4754.95,6382.182Z" transform="translate(-4688.107 -6277.159)"/><path d="M6632.731,7673.46a.776.776,0,0,1-.651-.7,1.171,1.171,0,0,1,1.081-1.55c.352,0,.938.3.938.5,0,.117.338.156,1.263.156h1.276l.938-.938c.847-.847.951-1,.951-1.446a1.125,1.125,0,0,1,2.006-.729,1.044,1.044,0,0,1-.04,1.563,1.071,1.071,0,0,1-.859.377c-.43,0-.6.117-1.524,1.042l-1.029,1.042h-1.433a5.165,5.165,0,0,0-1.419.1C6634.229,7673.291,6633.37,7673.63,6632.731,7673.46Zm.586-1.094c0-.312-.3-.273-.364.052-.026.13.039.221.156.221S6633.317,7672.523,6633.317,7672.366Zm6.591-2.735a.23.23,0,0,0-.352-.287.25.25,0,0,0,.144.43A.306.306,0,0,0,6639.908,7669.631Z" transform="translate(-6545.634 -7568.438)"/><path d="M7637.164,7675.094a.827.827,0,0,1-.456-.378c-.118-.273-.208-.287-1.537-.287h-1.407l-1.042-1.042c-.937-.937-1.094-1.042-1.537-1.042a1.146,1.146,0,0,1-1.185-1.2,1.077,1.077,0,0,1,1.133-1.146c.69.014,1.081.365,1.081,1,0,.456.1.6,1.016,1.512l1,1h1.211c.69,0,1.2-.053,1.2-.131,0-.156.69-.521,1.016-.521,1.185,0,1.615,1.823.521,2.2A1.253,1.253,0,0,1,7637.164,7675.094Zm.651-1.068c0-.312-.3-.273-.365.052-.025.131.039.222.157.222S7637.815,7674.182,7637.815,7674.025Zm-6.435-2.735a.23.23,0,0,0-.352-.287.251.251,0,0,0,.144.431A.308.308,0,0,0,7631.38,7671.29Z" transform="translate(-7530.594 -7570.096)"/><path d="M7376.463,7370.273a1.21,1.21,0,0,1-.417-.625,1.45,1.45,0,0,1,.508-1.264c.286-.1.273-4.441-.013-4.559a1.032,1.032,0,0,1-.391-.521,1.07,1.07,0,0,1,.469-1.433,1.181,1.181,0,0,1,1.419,1.875l-.391.4v4.051l.391.365a1.123,1.123,0,0,1,.144,1.55A1.371,1.371,0,0,1,7376.463,7370.273Zm1.028-.886c.026-.1-.064-.169-.221-.169s-.273.078-.273.208C7377,7369.661,7377.4,7369.622,7377.491,7369.388Zm-.117-6.643c-.2-.221-.417-.026-.3.274.065.169.117.182.26.065S7377.491,7362.888,7377.375,7362.745Z" transform="translate(-7279.936 -7265.797)"/><path d="M3786.852,7391.725c-.287-.221-.339-.365-.339-.951a1.658,1.658,0,0,0-.156-.833,6.133,6.133,0,0,0-2.1-.156h-1.928l-.339.391a.886.886,0,0,1-.833.391,1.078,1.078,0,0,1-1.159-1.172,1.128,1.128,0,0,1,1.993-.782l.339.391h2.214c2.058,0,2.253.026,2.488.26a.9.9,0,0,1,.26.365c0,.052.208.1.469.118a1,1,0,0,1,1.029.833A1.194,1.194,0,0,1,3786.852,7391.725Zm.963-.9c0-.3-.326-.352-.43-.078-.065.169.065.3.339.325C3787.776,7391.086,3787.815,7390.969,3787.815,7390.826Zm-6.447-1.432a.275.275,0,0,0-.222-.235c-.169-.026-.234.039-.234.235s.065.26.234.234A.275.275,0,0,0,3781.368,7389.394Z" transform="translate(-3730.742 -7291.964)"/><path d="M6632.209,7392.678a1.2,1.2,0,0,1-.378-1.29.7.7,0,0,1,.548-.638,1.263,1.263,0,0,1,.625-.143c.078.039.26-.1.377-.312l.221-.378h4.585l.378-.391a1.09,1.09,0,0,1,1.681-.013,1.044,1.044,0,0,1,.039,1.563,1.089,1.089,0,0,1-1.719.013l-.378-.391h-1.941c-1.81,0-1.954.013-2.11.261a.859.859,0,0,0-.078.6,1.341,1.341,0,0,1-.469,1.185A1.384,1.384,0,0,1,6632.209,7392.678Zm.9-.755c.117-.13-.052-.443-.248-.443a.176.176,0,0,0-.183.17C6632.678,7391.936,6632.926,7392.1,6633.108,7391.923Zm6.525-1.472c.039-.065-.013-.182-.1-.26-.208-.169-.417.026-.273.247A.21.21,0,0,0,6639.633,7390.451Z" transform="translate(-6545.385 -7292.878)"/><path d="M7636.838,7392.19c-.312-.286-.352-.4-.287-.9.092-.925-.039-.977-2.357-.977-1.342,0-1.979.052-1.979.143,0,.287-.586.625-1.081.639a1.077,1.077,0,0,1-1.133-1.146,1.135,1.135,0,0,1,1.993-.808l.338.391h2.267c2.253,0,2.267,0,2.5.313a1.306,1.306,0,0,0,.7.4,1.06,1.06,0,0,1,.99.873,1.345,1.345,0,0,1-.456,1.237A1.3,1.3,0,0,1,7636.838,7392.19Zm.977-.833c0-.143-.091-.26-.2-.26-.195,0-.273.273-.1.43S7637.815,7391.617,7637.815,7391.357Zm-6.435-1.316a.23.23,0,0,0-.352-.286.25.25,0,0,0,.144.43A.307.307,0,0,0,7631.38,7390.041Z" transform="translate(-7530.594 -7292.495)"/><path d="M1530.716,7086.425a1.37,1.37,0,0,1-.716-1.381c0-.625.052-.743.4-1.081a1.4,1.4,0,0,1,1.784-.247,1.531,1.531,0,0,1,.026,2.67A1.778,1.778,0,0,1,1530.716,7086.425Zm1.055-.859a.633.633,0,0,0-.1-1.081c-.208-.118-.326-.079-.573.156-.365.352-.391.469-.091.794A.565.565,0,0,0,1531.771,7085.565Z" transform="translate(-1510.048 -6991.236)"/><path d="M3500.821,7087.057a1.784,1.784,0,0,1-.821-1.329,1.51,1.51,0,0,1,2.67-1.068,1.785,1.785,0,0,1,.091,1.941A1.708,1.708,0,0,1,3500.821,7087.057Zm1.211-1.107c.169-.273.182-.364.052-.534-.352-.4-.625-.469-.912-.182-.312.313-.325.56-.052.833A.548.548,0,0,0,3502.032,7085.95Z" transform="translate(-3454.389 -6991.842)"/><path d="M7352.369,7085.46a1.575,1.575,0,0,1,.508-2.866,1.769,1.769,0,0,1,1.863,1.511,1.844,1.844,0,0,1-.795,1.368A1.767,1.767,0,0,1,7352.369,7085.46Zm1.264-1.016c.169-.26.183-.364.052-.586a.549.549,0,0,0-.912-.13c-.3.3-.312.546-.039.82A.534.534,0,0,0,7353.633,7084.444Z" transform="translate(-7255.855 -6990.323)"/><path d="M1810.43,7112.786c-.391-.247-.43-.325-.43-.963,0-.6.052-.743.339-.964.547-.43,1.511-.274,1.68.274.078.221.26.233,2.227.233h2.149l.378-.391a1.021,1.021,0,0,1,1.55-.052c1.055.886-.1,2.67-1.263,1.941a1.627,1.627,0,0,1-.456-.417,15.983,15.983,0,0,0-4.52-.04c0,.17-.781.651-1.042.651A1.755,1.755,0,0,1,1810.43,7112.786Zm.821-.911a.239.239,0,0,0-.026-.248c-.156-.156-.495.065-.391.248A.227.227,0,0,0,1811.25,7111.875Zm6.565-.026a.365.365,0,0,0-.091-.26c-.117-.118-.443.168-.352.313C1817.477,7112.083,1817.815,7112.044,1817.815,7111.849Z" transform="translate(-1786.401 -7017.975)"/><path d="M2780.781,7112.384a1.175,1.175,0,0,1-.781-1.159.894.894,0,0,1,.4-.886,1.011,1.011,0,0,1,1.55.053l.365.391h4.09l.456-.391a1.015,1.015,0,0,1,1.6,0,1.178,1.178,0,0,1-.391,1.953.82.82,0,0,1-.86-.039,1.311,1.311,0,0,1-.521-.417c-.065-.169-.443-.2-2.279-.2-1.667,0-2.214.039-2.292.17A1.184,1.184,0,0,1,2780.781,7112.384Zm.573-1.055c.1-.169-.143-.456-.3-.365-.208.13-.183.469.039.469A.373.373,0,0,0,2781.354,7111.329Zm6.513-.013c.039-.065-.013-.182-.1-.26-.208-.17-.417.025-.274.248A.211.211,0,0,0,2787.867,7111.316Z" transform="translate(-2743.767 -7017.391)"/><path d="M3780.416,7112.75a1.223,1.223,0,0,1-.039-2.032,1.1,1.1,0,0,1,1.459.2l.391.391h4.038l.456-.391a1.038,1.038,0,0,1,1.537-.078,1.17,1.17,0,0,1-.273,1.967,1.074,1.074,0,0,1-1.368-.273c-.286-.3-.339-.313-2.423-.313a9.687,9.687,0,0,0-2.123.118c0,.156-.547.508-.925.6A1.105,1.105,0,0,1,3780.416,7112.75Zm.808-1.055c0-.287-.378-.234-.43.04-.039.183.013.234.2.2A.276.276,0,0,0,3781.223,7111.695Zm6.5.157a.357.357,0,0,0-.052-.287c-.091-.144-.143-.144-.312-.013-.117.091-.169.222-.13.286A.338.338,0,0,0,3787.723,7111.852Z" transform="translate(-3730.597 -7017.913)"/><path d="M6632.749,7112.345a1.243,1.243,0,0,1-.234-2.045.993.993,0,0,1,1.5.092l.365.391h4.09l.456-.391a1.015,1.015,0,0,1,1.6,0,1.155,1.155,0,0,1,.391.833,1.354,1.354,0,0,1-.951,1.186,1.386,1.386,0,0,1-1.225-.534,13.372,13.372,0,0,0-4.558-.013,1.053,1.053,0,0,1-1.433.481Zm.664-1.016c.1-.169-.143-.456-.3-.365-.208.13-.183.469.039.469A.372.372,0,0,0,6633.413,7111.329Zm6.513-.013c.04-.065-.013-.182-.1-.26-.208-.17-.417.025-.273.248A.211.211,0,0,0,6639.925,7111.316Z" transform="translate(-6545.678 -7017.391)"/><path d="M7630.625,7112.185a1.08,1.08,0,0,1-.625-1.016,1.135,1.135,0,0,1,1.979-.859l.391.391h4.116l.391-.391a1,1,0,0,1,1.524-.079,1.169,1.169,0,0,1-.273,1.967.994.994,0,0,1-1.316-.274c-.273-.3-.338-.312-2.449-.312a9.733,9.733,0,0,0-2.149.118c0,.156-.821.665-1.056.665A1.7,1.7,0,0,1,7630.625,7112.185Zm.755-.977a.23.23,0,0,0-.352-.287.251.251,0,0,0,.144.431A.308.308,0,0,0,7631.38,7111.208Zm6.487.039c.1-.169-.144-.456-.3-.365-.208.131-.183.47.039.47A.372.372,0,0,0,7637.867,7111.247Z" transform="translate(-7530.594 -7017.308)"/><path d="M1554.478,6370.681a1.2,1.2,0,0,1-.13-1.993c.248-.156.26-.3.26-2.318,0-2.1-.013-2.163-.286-2.28-.651-.3-.56-1.524.143-1.941a.808.808,0,0,1,.912-.078.974.974,0,0,1,.795,1.055,1.15,1.15,0,0,1-.326.82c-.326.352-.326.391-.326,2.488,0,1.654.039,2.162.182,2.24a1.345,1.345,0,0,1,.469,1.081,1.034,1.034,0,0,1-.4.794C1555.3,6370.993,1555.09,6371.019,1554.478,6370.681Zm.729-.937a.23.23,0,0,0-.352-.287.25.25,0,0,0,.143.429A.308.308,0,0,0,1555.207,6369.743Zm.026-6.591c.026-.1-.065-.169-.221-.169s-.274.078-.274.209C1554.738,6363.426,1555.142,6363.387,1555.233,6363.152Z" transform="translate(-1533.614 -6279.1)"/><path d="M3525.122,6371.54a1.225,1.225,0,0,1-.625-.651.853.853,0,0,1,.013-.912,1.241,1.241,0,0,1,.4-.508c.274-.1.274-4.507,0-4.507-.234,0-.625-.82-.521-1.133.2-.586.378-.795.834-.951a.874.874,0,0,1,.938.091.744.744,0,0,1,.469.755c.065.69-.065,1.081-.365,1.172-.248.078-.261.2-.261,2.228,0,2.123,0,2.149.326,2.449.261.247.326.43.326.964,0,.6-.039.678-.443.925C3525.708,6371.787,3525.682,6371.787,3525.122,6371.54Zm.7-.99a.23.23,0,0,0-.352-.286.25.25,0,0,0,.143.43A.308.308,0,0,0,3525.826,6370.55Zm.026-6.591c.026-.1-.065-.169-.221-.169s-.274.078-.274.208C3525.357,6364.232,3525.76,6364.193,3525.852,6363.959Z" transform="translate(-3478.443 -6279.907)"/><path d="M7377.4,6372.226a1.141,1.141,0,0,1-.3-1.941c.26-.234.273-.378.273-2.384v-2.136l-.338-.287a1.175,1.175,0,0,1,1.25-1.915,1.161,1.161,0,0,1,.782,1.082c0,.429-.338,1-.6,1-.144,0-.183.4-.183,2.149v2.136l.391.4a1.122,1.122,0,0,1-.261,1.889C7377.96,6372.46,7377.946,6372.46,7377.4,6372.226Zm.7-.99a.231.231,0,0,0-.353-.287.25.25,0,0,0,.144.43A.308.308,0,0,0,7378.1,6371.236Zm.025-6.59c.026-.1-.065-.17-.221-.17s-.274.078-.274.209C7377.634,6364.919,7378.038,6364.88,7378.129,6364.646Z" transform="translate(-7280.573 -6280.593)"/><path d="M1810.664,6725a1,1,0,0,1-.664-1.107c0-.834.313-1.146,1.094-1.146.469,0,.638.065.834.326.26.325.274.325,2.279.325,2.24,0,2.371-.052,2.227-.769a1.145,1.145,0,0,1,.625-1.263.964.964,0,0,1,1.263.156,1.122,1.122,0,0,1-.586,2.006.76.76,0,0,0-.677.391l-.3.391h-4.52l-.391.391A1.037,1.037,0,0,1,1810.664,6725Zm.547-1.3c-.052-.131-.117-.144-.247-.026s-.156.2-.039.339C1811.107,6724.227,1811.329,6723.992,1811.211,6723.692Zm6.6-1.29c0-.182-.274-.248-.43-.091-.117.117.169.443.313.352A.33.33,0,0,0,1817.815,6722.4Z" transform="translate(-1786.401 -6633.648)"/><path d="M2786.864,6726.8l-.456-.391h-4.441l-.273-.391a.736.736,0,0,0-.7-.391,1.013,1.013,0,0,1-.99-1.146,1.061,1.061,0,0,1,.925-1.133,1.244,1.244,0,0,1,1.368,1.445c-.169.639.026.7,2.188.7,1.954,0,1.993,0,2.292-.326a1.282,1.282,0,0,1,1.785.026,1.131,1.131,0,0,1-.352,1.8A.976.976,0,0,1,2786.864,6726.8Zm.938-1c-.2-.234-.443-.013-.326.287.065.183.117.2.273.065S2787.919,6725.937,2787.8,6725.793Zm-6.448-1.146a.227.227,0,0,0-.13-.287c-.247-.091-.365.026-.273.287S2781.25,6724.895,2781.354,6724.647Z" transform="translate(-2743.767 -6635.75)"/><path d="M3779.945,6726.4a1.234,1.234,0,0,1-.222-1.784,1.208,1.208,0,0,1,1.707-.014c.352.313.4.326,2.357.326,2.253,0,2.175.039,2.175-.977a1.1,1.1,0,0,1,1.68-1.029,1.126,1.126,0,0,1-.4,2.136.707.707,0,0,0-.69.391l-.26.391h-2.306a11.137,11.137,0,0,0-2.318.118c0,.169-.833.665-1.12.665A1.483,1.483,0,0,1,3779.945,6726.4Zm.794-1.172c-.2-.235-.443-.014-.326.286.065.182.117.2.273.065S3780.857,6725.372,3780.74,6725.229Zm6.526-1.212a.241.241,0,0,0-.43-.169c-.1.091.144.43.313.43C3787.213,6724.277,3787.266,6724.16,3787.266,6724.017Z" transform="translate(-3730.192 -6635.185)"/><path d="M6641.8,6726.817l-.456-.391H6636.9l-.273-.391a.736.736,0,0,0-.7-.391c-.612,0-.925-.391-.925-1.185,0-.678.208-.951.873-1.094a1.246,1.246,0,0,1,1.354,1.446c-.169.638.026.7,2.188.7,1.953,0,1.993,0,2.292-.326a1.284,1.284,0,0,1,1.785.026,1.1,1.1,0,0,1-.1,1.615A1.028,1.028,0,0,1,6641.8,6726.817Zm.99-.847c.014-.065-.078-.143-.2-.169-.143-.026-.234.039-.234.169C6642.359,6726.192,6642.75,6726.205,6642.789,6725.971Zm-6.5-1.3a.227.227,0,0,0-.131-.286c-.247-.092-.365.025-.273.286S6636.186,6724.915,6636.29,6724.668Z" transform="translate(-6548.554 -6635.771)"/><path d="M7630.2,6727.087a1.184,1.184,0,0,1-.117-1.642,1.229,1.229,0,0,1,1.732-.013c.3.325.338.325,2.279.325a6.1,6.1,0,0,0,2.136-.156,1.672,1.672,0,0,0,.156-.847c0-.742.2-.989.873-1.146a1.266,1.266,0,0,1,1.289.743,1.106,1.106,0,0,1-.925,1.537.772.772,0,0,0-.677.391l-.287.391H7634.4c-2.267,0-2.267,0-2.579.326a1.534,1.534,0,0,1-.769.417C7630.664,6727.478,7630.534,6727.425,7630.2,6727.087Zm.9-1.029c-.183-.222-.4.013-.286.313.052.13.117.144.247.026S7631.211,6726.2,7631.094,6726.058Zm6.525-1.211c0-.144-.091-.261-.2-.261-.2,0-.273.273-.1.43S7637.619,6725.107,7637.619,6724.847Z" transform="translate(-7530.398 -6636.014)"/><path d="M1810.651,6346.792c-.469-.17-.651-.469-.651-1.081,0-.742.3-1.068.99-1.094.4-.013.612-.156,1.589-1.146l1.12-1.146h1.394c1.276,0,1.42-.026,1.6-.273a1.338,1.338,0,0,1,1.68-.117.83.83,0,0,1,.352.833c0,.573-.156.808-.729,1.094a1.194,1.194,0,0,1-1.315-.365c-.156-.234-.326-.26-1.342-.26h-1.159l-.99,1c-.86.873-.977,1.055-.977,1.485A1.136,1.136,0,0,1,1810.651,6346.792Zm.547-1.237c-.117-.117-.2-.117-.313,0s-.13.2.026.286C1811.172,6346,1811.407,6345.763,1811.2,6345.555Zm6.617-2.774a.189.189,0,0,0-.182-.2c-.221,0-.365.182-.247.313C1817.542,6343.054,1817.815,6342.976,1817.815,6342.78Z" transform="translate(-1786.401 -6259.092)"/><path d="M2787.086,6344.767a1.383,1.383,0,0,1-.651-1.211c.052-.234-.117-.482-.912-1.29l-.977-1h-1.159c-1.016,0-1.185.026-1.3.248a1.253,1.253,0,0,1-1.407.391c-.508-.169-.677-.456-.677-1.146a.82.82,0,0,1,.338-.781,1.3,1.3,0,0,1,1.667.052c.287.313.378.326,1.654.326H2785l1.133,1.146a5.506,5.506,0,0,0,1.29,1.095,1.19,1.19,0,0,1,1.211.482,1.082,1.082,0,0,1-.156,1.458A1.15,1.15,0,0,1,2787.086,6344.767Zm.86-1.042c0-.156-.378-.312-.482-.208a.328.328,0,0,0,0,.273C2787.542,6344,2787.945,6343.933,2787.945,6343.725Zm-6.6-2.918c.013-.065-.078-.143-.2-.169-.143-.026-.234.039-.234.169C2780.912,6341.028,2781.3,6341.042,2781.341,6340.807Z" transform="translate(-2743.767 -6257.119)"/><path d="M3780.586,6344.1a1.011,1.011,0,0,1-.586-1.029.99.99,0,0,1,1.042-1.107c.508-.025.638-.1,1.654-1.146l1.095-1.12h1.315c1.2,0,1.329-.026,1.693-.325a1.16,1.16,0,0,1,1.915,1.25,1.227,1.227,0,0,1-2.032.247c-.156-.222-.326-.261-1.316-.261h-1.133l-1.016,1.017c-.925.938-1,1.055-1,1.55a.816.816,0,0,1-.339.808A1.148,1.148,0,0,1,3780.586,6344.1Zm.847-1.029c0-.156-.377-.312-.482-.208a.329.329,0,0,0,0,.274C3781.029,6343.345,3781.433,6343.28,3781.433,6343.071Zm6.382-2.918a.19.19,0,0,0-.182-.2c-.222,0-.365.183-.248.313C3787.542,6340.427,3787.815,6340.349,3787.815,6340.153Z" transform="translate(-3730.742 -6256.466)"/><path d="M6637.1,6344.066a1.076,1.076,0,0,1-.586-1.055c0-.43-.1-.6-.964-1.459l-.977-.977H6633.4c-1.029,0-1.2.025-1.315.247a1.264,1.264,0,0,1-1.42.391c-.456-.156-.664-.534-.664-1.172a1.184,1.184,0,0,1,2.006-.7c.286.313.378.325,1.641.325h1.341l1.12,1.107c.795.768,1.238,1.107,1.459,1.107a1.184,1.184,0,0,1,1.29,1.238A1.234,1.234,0,0,1,6637.1,6344.066Zm.82-1.042c-.091-.248-.5-.287-.5-.052,0,.13.118.208.274.208S6637.945,6343.116,6637.919,6343.025Zm-6.577-2.9c.013-.065-.078-.144-.2-.169-.144-.026-.235.039-.235.169C6630.912,6340.342,6631.3,6340.354,6631.342,6340.12Z" transform="translate(-6543.619 -6256.433)"/><path d="M7631.549,6344.219a1.015,1.015,0,0,1-.573-1.016,1,1,0,0,1,1.029-1.121c.508-.025.651-.117,1.68-1.146l1.12-1.12h1.329c1.25,0,1.354-.026,1.654-.326a1.265,1.265,0,0,1,1.641-.065,1.169,1.169,0,0,1-1.211,1.94.831.831,0,0,1-.547-.377c-.078-.234-.209-.261-1.276-.261h-1.2l-1.017,1.017c-.925.938-1,1.055-1,1.55a.815.815,0,0,1-.339.808A1.146,1.146,0,0,1,7631.549,6344.219Zm.847-1.016a.309.309,0,0,0-.144-.209c-.183-.1-.43.144-.325.326C7632.018,6343.463,7632.4,6343.372,7632.4,6343.2Zm6.382-2.931a.195.195,0,1,0-.2.2A.2.2,0,0,0,7638.777,6340.272Z" transform="translate(-7531.556 -6256.584)"/><path d="M1227.537,4590.515c-.378-.208-.456-.365-.456-.912,0-.352.078-.535.26-.651.208-.13.26-.313.26-.9,0-.886.026-.9,1.446-.9h1.029V4585.2h-1.954v-1.954h-1.81l-.039,1.212-.039,1.2-.755.039c-.612.026-.834.1-1.081.365a.871.871,0,0,1-1.381-.079c-.313-.325-.378-.469-.3-.755a1.481,1.481,0,0,1,.286-.573,1.118,1.118,0,0,1,1.407.026.943.943,0,0,0,.677.26h.43v-2.475h2.605v-1.433h-1.693c-1.537,0-1.732.026-1.993.261a.878.878,0,0,1-1.237.169.9.9,0,0,1,.495-1.706c.443-.039.586.013.742.222.169.247.313.272,1.941.272h1.745v-1.432h-1.745a5.479,5.479,0,0,0-1.837.143,1.314,1.314,0,0,1-1.133.313,1.043,1.043,0,0,1-.69-1.121,1.019,1.019,0,0,1,1.706-.442c.313.313.391.326,2.006.326h1.693v-1.563h-2.605v-2.345h-.417a1.151,1.151,0,0,0-.651.221,1.3,1.3,0,0,1-.716.221.983.983,0,0,1-1.016-1.081,1.047,1.047,0,0,1,1.693-.534.948.948,0,0,0,.768.26c1.107,0,1.12.014,1.12,1.315v1.16h1.81l.039-.938.039-.951.951-.039.938-.039v-1.81H1229a2.861,2.861,0,0,1-1.237-.157,1.6,1.6,0,0,1-.156-.82c0-.5-.065-.716-.26-.886a1.05,1.05,0,0,1,.026-1.446c1.016-.716,2.24.573,1.342,1.407a1.042,1.042,0,0,0-.326.651V4571h1.172c1.407,0,1.433.026,1.433,1.615v1.121h1.3v-1.771c0-1.5-.039-1.811-.208-1.941-.143-.1-.221-.338-.221-.716,0-.664.26-.912.912-.912a.95.95,0,0,1,.69,1.6c-.234.286-.26.521-.26,2.031v1.707h1.433v-1.759c0-1.329-.039-1.771-.182-1.85a.955.955,0,0,1,.208-1.667c.638-.144,1.12.039,1.211.469.1.5-.026,1.12-.274,1.211-.143.053-.182.417-.182,1.837v1.759h1.433v-1.212a3.127,3.127,0,0,1,.156-1.367,2.86,2.86,0,0,1,1.237-.157c1.081,0,1.081,0,1.081-.338a1.29,1.29,0,0,0-.261-.664,1,1,0,0,1,1.316-1.472c.326.182.365,1.394.052,1.511-.143.065-.2.286-.2.847,0,.95-.117,1.029-1.55,1.029h-1.055v1.824h.964c1.107,0,1.12.013,1.12,1.185v.769h1.823v-1.16c0-1.3.013-1.315.99-1.315a1.174,1.174,0,0,0,.86-.26.969.969,0,0,1,1.42,1.315,1.1,1.1,0,0,1-1.42.078,1.151,1.151,0,0,0-.651-.221h-.4l-.039,1.146-.039,1.133-1.263.039-1.276.039v1.55h1.693c1.277,0,1.706-.04,1.785-.183a1.358,1.358,0,0,1,.925-.469,1.2,1.2,0,0,1,.6.273c.964.755-.234,2.175-1.224,1.433-.339-.248-.547-.273-2.084-.273h-1.693v1.432h1.667c1.511,0,1.706-.025,1.915-.26a1.115,1.115,0,0,1,1.55.065.977.977,0,0,1-1.485,1.263c-.286-.26-.443-.287-1.98-.287h-1.667v1.42l1.276.039,1.263.039.039,1.211.039,1.2h.365a.931.931,0,0,0,.6-.26.991.991,0,0,1,1.407,1.394.87.87,0,0,1-1.3-.013,1.663,1.663,0,0,0-1.094-.365l-.7-.039-.039-1.2-.039-1.212h-1.8l-.039.951-.039.938-1,.039-1.016.039v1.941h1.094c1.5,0,1.511.013,1.511.912,0,.547.052.769.2.833s.2.261.2.716c0,.534-.052.665-.326.847a.863.863,0,0,1-1.159-.065.963.963,0,0,1-.078-1.394,1.14,1.14,0,0,0,.261-.664v-.391l-1.2-.039-1.211-.04-.039-1.328-.039-1.342h-1.42v1.758c0,1.615.026,1.785.274,2.032.221.221.26.377.208.807a1.1,1.1,0,0,1-.248.639.974.974,0,0,1-1.511-1.146c.078-.247.235-.442.326-.442.13,0,.169-.417.169-1.824V4585.2H1233.2v1.758c0,1.589.026,1.8.26,2.045a.95.95,0,0,1-.065,1.342.832.832,0,0,1-1.224.078,1.186,1.186,0,0,1-.091-1.51c.169-.13.208-.443.208-1.941V4585.2h-1.3v1.159a8.4,8.4,0,0,1-.078,1.368c-.065.169-.312.208-1.3.208h-1.224v.4a.807.807,0,0,0,.326.664.919.919,0,0,1-.521,1.6A1.067,1.067,0,0,1,1227.537,4590.515Z" transform="translate(-1206.739 -4508.872)"/><path d="M3058.644,5835.119a1.081,1.081,0,0,1-.678-1.134c-.013-.82.261-1.12,1.082-1.12.508,0,.664.065.873.326.248.3.339.326,1.407.326h1.159l.938-.938c.833-.833.951-1,.951-1.42a1.38,1.38,0,0,1,.273-.82c.222-.287.365-.339.925-.339.794,0,1.133.326,1.146,1.081a1.077,1.077,0,0,1-1.12,1.134c-.417,0-.586.117-1.55,1.106l-1.081,1.107H3061.6c-1.342,0-1.381.013-1.784.391A1.026,1.026,0,0,1,3058.644,5835.119Zm.56-1.29a.183.183,0,0,0-.248-.091c-.221.079-.234.2-.026.4C3059.113,5834.324,3059.308,5834.1,3059.2,5833.83Zm6.552-2.67a.23.23,0,0,0-.352-.286.25.25,0,0,0,.143.43A.308.308,0,0,0,3065.756,5831.159Z" transform="translate(-3018.112 -5754.063)"/><path d="M3847.629,5836.5a1.336,1.336,0,0,1-.482-1.485c.169-.469.456-.639,1.133-.639a.817.817,0,0,1,.769.326c.247.3.339.325,1.42.325h1.159l.951-.964c.846-.859.964-1.016.977-1.5.039-.808.365-1.081,1.238-1.028.664.039.716.064.964.534a.831.831,0,0,1,.091.886,1.165,1.165,0,0,1-1.146.769c-.378,0-.586.143-1.524,1.107l-1.068,1.107h-1.459c-1.094,0-1.446.039-1.446.169,0,.208-.664.612-1,.612A1.4,1.4,0,0,1,3847.629,5836.5Zm.742-1.16c-.065-.169-.13-.182-.234-.078a.357.357,0,0,0-.052.365c.065.169.13.182.234.078A.357.357,0,0,0,3848.372,5835.338Zm6.513-2.67a.23.23,0,0,0-.352-.287.251.251,0,0,0,.143.43A.308.308,0,0,0,3854.884,5832.668Z" transform="translate(-3796.951 -5755.571)"/><path d="M4849.335,5834.937c-.234-.156-.43-.325-.43-.391a4.3,4.3,0,0,0-1.407-.117H4846.1l-1.107-1.107c-.951-.95-1.16-1.106-1.537-1.106a1.181,1.181,0,0,1-1.159-1.225,1.009,1.009,0,0,1,1.172-.99c.769,0,1.12.339,1.133,1.042,0,.4.143.612.99,1.472l.977,1h1.094c.99,0,1.133-.026,1.446-.326a1.24,1.24,0,0,1,1.732.013,1.213,1.213,0,0,1-.248,1.784A.986.986,0,0,1,4849.335,5834.937Zm.82-1.107c-.065-.169-.13-.182-.234-.079a.357.357,0,0,0-.052.365c.065.169.13.183.234.078A.356.356,0,0,0,4850.155,5833.83Zm-6.539-2.6c.169-.065.182-.117.065-.261s-.2-.143-.325-.039c-.1.078-.144.2-.1.261C4843.33,5831.329,4843.356,5831.329,4843.617,5831.225Z" transform="translate(-4779.197 -5754.063)"/><path d="M5798.1,5836.437c-.664-.4-.729-1.667-.117-1.993a1.526,1.526,0,0,1,1.589.2c.326.3.456.325,1.459.325h1.107l.977-1c.912-.924.99-1.055.99-1.55,0-.755.3-.99,1.185-.937.625.039.716.078.938.469a.871.871,0,0,1,.091.938,1.087,1.087,0,0,1-1.172.782c-.3,0-.586.221-1.446,1.106l-1.081,1.107h-1.394c-1.016,0-1.433.052-1.511.169a1.646,1.646,0,0,1-1.016.612A1.425,1.425,0,0,1,5798.1,5836.437Zm.781-1.172c-.2-.234-.442-.013-.325.286.065.183.117.2.273.065S5799,5835.408,5798.884,5835.265Zm6.526-2.7c0-.261-.248-.4-.417-.234a.245.245,0,0,0-.052.273C5805.071,5832.816,5805.41,5832.777,5805.41,5832.568Z" transform="translate(-5722.025 -5755.511)"/><path d="M6799.217,5834.976c-.208-.117-.365-.286-.365-.378,0-.13-.365-.169-1.446-.169h-1.459l-1.081-1.107c-.964-.977-1.146-1.106-1.563-1.106a1.172,1.172,0,0,1-1.186-1.225c.118-.729.443-.99,1.2-.99.795,0,1.146.326,1.186,1.094.013.43.143.625.978,1.458l.95.964h1.12c1,0,1.133-.039,1.42-.326a.961.961,0,0,1,.847-.326,1,1,0,0,1,1.12,1.12.909.909,0,0,1-.521,1A.959.959,0,0,1,6799.217,5834.976Zm.755-1.146c-.065-.169-.13-.182-.234-.079a.357.357,0,0,0-.052.365c.065.169.13.183.235.078A.356.356,0,0,0,6799.973,5833.83Zm-6.421-2.618c.052-.039.026-.156-.052-.26-.117-.13-.2-.13-.325-.026-.1.078-.144.2-.1.261A.333.333,0,0,0,6793.551,5831.211Z" transform="translate(-6703.614 -5754.063)"/><path d="M4590.9,5531.763a.828.828,0,0,1-.325-.924,1.205,1.205,0,0,1,.4-.808c.339-.3.339-.3.339-2.358v-2.058l-.391-.391a1.084,1.084,0,0,1-.117-1.537,1.4,1.4,0,0,1,1.8-.039,1.228,1.228,0,0,1-.052,1.615c-.312.313-.325.352-.325,2.41s0,2.11.325,2.41a1,1,0,0,1,.326.859A1.121,1.121,0,0,1,4590.9,5531.763Zm1.068-.859c0-.183-.273-.248-.43-.091-.117.117.169.443.313.352A.329.329,0,0,0,4591.971,5530.9Zm0-6.513c0-.222-.338-.248-.469-.039-.092.156.2.4.364.3A.368.368,0,0,0,4591.971,5524.391Z" transform="translate(-4530.729 -5451.397)"/><path d="M6548.62,5530.05a1.283,1.283,0,0,1-.026-1.785c.325-.3.325-.338.325-2.383s0-2.084-.325-2.384a1,1,0,0,1-.326-.873.944.944,0,0,1,.755-1.068c.442-.13,1.2.039,1.2.261,0,.1.053.2.117.2s.156.182.208.391a1.254,1.254,0,0,1-.547,1.211c-.13.078-.169.586-.169,2.2v2.084l.391.456a.976.976,0,0,1,.2,1.342A1.131,1.131,0,0,1,6548.62,5530.05Zm.951-.951c0-.182-.273-.247-.43-.091-.117.117.169.442.313.352A.329.329,0,0,0,6549.57,5529.1Zm0-6.513c0-.221-.338-.247-.469-.039-.091.156.2.4.364.3A.369.369,0,0,0,6549.57,5522.586Z" transform="translate(-6462.929 -5449.592)"/><path d="M3054.475,5555.1a1.278,1.278,0,0,1,.117-1.8,2.259,2.259,0,0,1,1.12-.312.153.153,0,0,0,.091-.156c0-.417.456-.5,2.7-.508,2.124,0,2.254-.013,2.436-.273a1.338,1.338,0,0,1,1.68-.117c.287.221.352.378.352.846s-.065.625-.338.833a1.3,1.3,0,0,1-1.667-.052c-.3-.326-.338-.326-2.332-.326-1.446,0-2.058.04-2.123.157a1.446,1.446,0,0,0-.065.651,1.4,1.4,0,0,1-.43,1.172A1.9,1.9,0,0,1,3054.475,5555.1Zm1.016-.7a.23.23,0,0,0-.352-.287.25.25,0,0,0,.143.43A.309.309,0,0,0,3055.491,5554.4Zm6.564-1.628c0-.118-.091-.183-.221-.157-.326.065-.365.365-.052.365C3061.938,5552.976,3062.055,5552.9,3062.055,5552.767Z" transform="translate(-3014.36 -5479.382)"/><path d="M3846.355,5554.967a1.278,1.278,0,0,1,.886-2.188.832.832,0,0,0,.482-.326c.248-.326.261-.326,2.475-.326s2.214,0,2.618-.339a1.246,1.246,0,0,1,1.98.574,1.29,1.29,0,0,1-.625,1.25,1.4,1.4,0,0,1-1.446-.247c-.3-.326-.339-.326-2.24-.326a11.049,11.049,0,0,0-2.11.117c-.1.065-.182.4-.2.86-.026.56-.091.794-.287.924A1.91,1.91,0,0,1,3846.355,5554.967Zm.925-.925c.026-.13-.039-.221-.156-.221s-.208.117-.208.273C3846.915,5554.407,3847.215,5554.368,3847.28,5554.042Zm6.539-1.472c0-.117-.091-.183-.221-.156-.326.065-.365.365-.052.365C3853.7,5552.779,3853.818,5552.7,3853.818,5552.57Z" transform="translate(-3795.833 -5479.186)"/><path d="M4848.967,5554.889c-.234-.2-.286-.378-.286-.886a1.7,1.7,0,0,0-.131-.794c-.091-.13-.677-.169-2.11-.169-1.693,0-2.019.026-2.162.222a1.225,1.225,0,0,1-2.02-.156,1.037,1.037,0,0,1,.886-1.589,1.006,1.006,0,0,1,.977.273c.4.339.417.339,2.619.339h2.214l.261.338a.955.955,0,0,0,.625.391,2.51,2.51,0,0,1,.665.2,1.375,1.375,0,0,1,.065,1.9A1.745,1.745,0,0,1,4848.967,5554.889Zm1.029-.847c.026-.13-.039-.221-.157-.221s-.208.117-.208.273C4849.631,5554.407,4849.931,5554.368,4850,5554.042Zm-6.422-1.381a.155.155,0,0,0-.065-.208c-.2-.117-.56.039-.456.2A.339.339,0,0,0,4843.574,5552.661Z" transform="translate(-4779.011 -5479.186)"/><path d="M5795.793,5552.506a1.22,1.22,0,0,1,.273-2.006,1.323,1.323,0,0,1,.6-.144c.1.04.3-.1.456-.312l.286-.378h2.215c2.188,0,2.24,0,2.618-.326a1.154,1.154,0,0,1,1.914,1.211,1.249,1.249,0,0,1-1.992.352c-.3-.312-.339-.326-2.2-.326a17.722,17.722,0,0,0-2.1.078c-.156.065-.208.26-.208.833,0,.547-.065.795-.234.951A1.879,1.879,0,0,1,5795.793,5552.506Zm.938-.743c.208-.13.078-.4-.2-.4-.1,0-.183.118-.183.26C5796.354,5551.907,5796.444,5551.946,5796.731,5551.764Zm6.525-1.654c0-.117-.091-.182-.221-.156-.326.065-.365.365-.052.365C5803.14,5550.318,5803.257,5550.24,5803.257,5550.109Z" transform="translate(-5719.873 -5476.725)"/><path d="M6799.084,5554.993a1.284,1.284,0,0,1-.377-1.276c.1-.2.078-.3-.1-.47-.352-.312-4.064-.312-4.324.014a1.225,1.225,0,0,1-2.019-.156,1.037,1.037,0,0,1,.885-1.589,1.007,1.007,0,0,1,.977.273c.4.339.417.339,2.631.339s2.228,0,2.423.313a1.009,1.009,0,0,0,.69.391,1.083,1.083,0,0,1,1.067,1.186.961.961,0,0,1-1.094,1.107A2.025,2.025,0,0,1,6799.084,5554.993Zm.912-.951c.026-.13-.039-.221-.156-.221s-.208.117-.208.273C6799.631,5554.407,6799.931,5554.368,6800,5554.042Zm-6.421-1.381a.154.154,0,0,0-.065-.208c-.2-.117-.561.039-.456.2A.339.339,0,0,0,6793.575,5552.661Z" transform="translate(-6703.613 -5479.186)"/><path d="M4564.47,5248.487a1.377,1.377,0,0,1-.352-1.576,1.336,1.336,0,0,1,1.5-.951c.651,0,.756.04,1.095.443a1.6,1.6,0,0,1-.287,2.305,1.874,1.874,0,0,1-.886.169C4564.926,5248.878,4564.795,5248.826,4564.47,5248.487Zm1.615-.808a.661.661,0,0,0-.521-.885.644.644,0,0,0-.534.885c.1.235.222.287.521.261A.826.826,0,0,0,4566.085,5247.68Z" transform="translate(-4504.53 -5177.63)"/><path d="M6518.65,5248.32a1.555,1.555,0,0,1,0-2.084c.339-.378.443-.417,1.12-.417s.769.013,1.12.442a1.348,1.348,0,0,1,.378.951,1.362,1.362,0,0,1-1.537,1.524A1.109,1.109,0,0,1,6518.65,5248.32Zm1.654-.808c.183-.743-.625-1.172-1.029-.547-.182.273-.182.338-.013.586C6519.55,5247.955,6520.2,5247.93,6520.3,5247.513Z" transform="translate(-6433.325 -5177.489)"/><path d="M3055.12,5271.348a1.146,1.146,0,1,1,1.433-1.771c.3.326.325.326,2.462.326,2.1,0,2.162-.013,2.371-.287.156-.247.325-.3.834-.3.847,0,1.185.3,1.185,1.042a1.14,1.14,0,0,1-.925,1.173,1.249,1.249,0,0,1-1.2-.521c-.065-.169-.417-.2-2.228-.2-1.979,0-2.162.026-2.332.261a1.7,1.7,0,0,1-1.042.521A1.811,1.811,0,0,1,3055.12,5271.348Zm.833-.951c-.091-.247-.495-.286-.495-.052,0,.13.117.208.273.208S3055.98,5270.488,3055.954,5270.4Zm6.539-.052c0-.117-.091-.183-.221-.156-.326.065-.365.365-.052.365C3062.375,5270.553,3062.493,5270.475,3062.493,5270.345Z" transform="translate(-3014.797 -5200.607)"/><path d="M3845.836,5271.476a1.152,1.152,0,1,1,1.329-1.837c.326.326.365.326,2.423.326,2.032,0,2.1-.013,2.475-.326a1.225,1.225,0,0,1,1.576-.065,1.169,1.169,0,0,1-1.225,1.954,1.318,1.318,0,0,1-.521-.4c-.117-.222-.312-.248-2.266-.248s-2.149.026-2.267.248a1.215,1.215,0,0,1-.547.391A.916.916,0,0,1,3845.836,5271.476Zm.729-1.055a.2.2,0,1,0-.2.2A.2.2,0,0,0,3846.566,5270.42Zm6.513-.013c0-.117-.091-.182-.222-.156-.326.065-.365.365-.052.365C3852.961,5270.616,3853.079,5270.538,3853.079,5270.407Z" transform="translate(-3795.093 -5200.67)"/><path d="M4842.424,5271.916a1.113,1.113,0,0,1-.495-1.667,1.209,1.209,0,0,1,1.836-.2c.377.313.443.326,2.475.326,1.967,0,2.084-.013,2.253-.274a.989.989,0,0,1,.794-.338c.521-.065.651-.026.938.26a1.386,1.386,0,0,1,.208,1.524,1.237,1.237,0,0,1-1.484.338,1.077,1.077,0,0,1-.547-.4c-.065-.169-.4-.2-2.214-.2-1.915,0-2.136.026-2.292.234A1.124,1.124,0,0,1,4842.424,5271.916Zm.782-1a.155.155,0,0,0-.065-.208c-.2-.117-.56.039-.456.2A.34.34,0,0,0,4843.206,5270.913Zm6.447-.078a.2.2,0,1,0-.2.2A.2.2,0,0,0,4849.653,5270.835Z" transform="translate(-4778.643 -5201.084)"/><path d="M5795.31,5270.822a1,1,0,0,1-.573-.651,1.158,1.158,0,0,1,1.928-1.186c.378.313.443.326,2.436.326s2.058-.014,2.436-.326a1.147,1.147,0,0,1,1.875,1.276,1.2,1.2,0,0,1-2.045.209c-.117-.222-.312-.248-2.266-.248a7.769,7.769,0,0,0-2.149.131c0,.169-.509.481-.912.573A1.483,1.483,0,0,1,5795.31,5270.822Zm.833-1.016c-.091-.248-.495-.287-.495-.052,0,.13.117.208.273.208S5796.169,5269.9,5796.143,5269.806Zm6.409-.052c0-.117-.091-.183-.222-.156-.325.065-.365.365-.052.365C5802.435,5269.962,5802.552,5269.884,5802.552,5269.754Z" transform="translate(-5719.167 -5200.017)"/><path d="M6792.105,5271.786a1.079,1.079,0,0,1-.339-1.81,1.168,1.168,0,0,1,1.68-.052c.378.313.443.326,2.475.326,1.966,0,2.084-.013,2.253-.274a1.015,1.015,0,0,1,.768-.338c.821-.091,1.3.286,1.3,1.016,0,.69-.169.977-.69,1.146a1.251,1.251,0,0,1-1.406-.391c-.118-.222-.3-.248-2.267-.248-1.928,0-2.149.026-2.306.235A1.123,1.123,0,0,1,6792.105,5271.786Zm.781-1a.155.155,0,0,0-.065-.208c-.2-.117-.56.04-.456.2A.338.338,0,0,0,6792.887,5270.783Zm6.447-.078a.2.2,0,1,0-.2.2A.2.2,0,0,0,6799.334,5270.706Z" transform="translate(-6702.924 -5200.955)"/><path d="M4591.191,4528.74a1.121,1.121,0,0,1-.312-1.876l.391-.339v-4.155l-.391-.391a1.067,1.067,0,0,1-.169-1.459.878.878,0,0,1,.964-.521,1.074,1.074,0,0,1,1.159,1.133,1.045,1.045,0,0,1-.326.873c-.326.326-.326.365-.326,2.41s0,2.1.326,2.41a1.318,1.318,0,0,1,.078,1.654A1.472,1.472,0,0,1,4591.191,4528.74Zm.677-1.173a.244.244,0,0,0-.287-.052c-.143.052-.156.1-.039.261C4591.726,4527.984,4592.012,4527.8,4591.869,4527.567Zm.052-6.474c0-.182-.273-.247-.43-.091-.117.117.169.443.313.352A.331.331,0,0,0,4591.921,4521.094Z" transform="translate(-4530.679 -4461.125)"/><path d="M6548.789,4527.894c-.482-.182-.651-.469-.651-1.094,0-.508.065-.664.325-.873.326-.26.326-.273.326-2.4s0-2.124-.326-2.371a1.3,1.3,0,0,1-.026-1.746,1.192,1.192,0,0,1,1.667.091,1,1,0,0,1-.013,1.576l-.391.417v4.116l.4.43c.326.352.391.507.338.859a1.472,1.472,0,0,1-.326.69A1.528,1.528,0,0,1,6548.789,4527.894Zm.6-1.2a.245.245,0,0,0-.287-.052c-.144.052-.156.1-.039.261C6549.245,4527.113,6549.531,4526.93,6549.388,4526.7Zm.052-6.473c0-.183-.273-.248-.429-.091-.118.117.169.442.313.352A.331.331,0,0,0,6549.44,4520.222Z" transform="translate(-6462.799 -4460.254)"/><path d="M3067.034,4888.621a1.413,1.413,0,0,1-.43-.391c-.235-.3-.287-.3-2.5-.3h-2.28l-.208-.326a.687.687,0,0,0-.534-.326,1.382,1.382,0,0,1-.977-.443,2.071,2.071,0,0,1-.1-.742c0-.782.326-1.094,1.133-1.094q1.114,0,1.055,1.172a1.752,1.752,0,0,0,.078.69c.065.117.677.156,2.123.156,1.967,0,2.032-.013,2.41-.325a1.19,1.19,0,0,1,1.758.183,1.35,1.35,0,0,1-.1,1.458A1.682,1.682,0,0,1,3067.034,4888.621Zm.781-1a.371.371,0,0,0-.1-.261c-.169-.1-.456.144-.365.3C3067.477,4887.866,3067.815,4887.839,3067.815,4887.618Zm-6.617-1.667c-.117-.117-.2-.117-.312,0s-.13.2.026.287C3061.172,4886.394,3061.407,4886.159,3061.2,4885.951Z" transform="translate(-3020.12 -4821.371)"/><path d="M3857.271,4889.544a1.1,1.1,0,0,1-.456-.391c-.156-.247-.287-.261-2.462-.261h-2.305l-.208-.325a.686.686,0,0,0-.508-.326,1.185,1.185,0,0,1-1.055-.586,1.637,1.637,0,0,1,.156-1.367c.182-.234.391-.3.86-.312.794-.014,1.159.352,1.107,1.159a1.628,1.628,0,0,0,.065.69c.065.118.678.156,2.149.156,1.889,0,2.071-.026,2.292-.26a1.389,1.389,0,0,1,1.419-.26,1.349,1.349,0,0,1,.678,1.25A1.289,1.289,0,0,1,3857.271,4889.544Zm.742-.964a.37.37,0,0,0-.1-.26c-.169-.1-.456.143-.364.3C3857.674,4888.828,3858.013,4888.8,3858.013,4888.58Zm-6.513-1.589a.189.189,0,0,0-.2-.182c-.2,0-.273.273-.117.429C3851.318,4887.356,3851.5,4887.212,3851.5,4886.991Z" transform="translate(-3800.027 -4822.334)"/><path d="M4840.7,4889.593a1.345,1.345,0,0,1-.7-1.133,1.527,1.527,0,0,1,1.12-1.133c.391,0,1.095.338,1.095.521a7.34,7.34,0,0,0,2.188.1l2.176-.039.013-.7c.026-.924.338-1.25,1.185-1.236.742.013,1.081.364,1.081,1.12a1.124,1.124,0,0,1-1.055,1.146.785.785,0,0,0-.612.326c-.261.326-.261.326-2.488.326s-2.24,0-2.526.326A1.6,1.6,0,0,1,4840.7,4889.593Zm.821-1.042c.052-.169-.312-.352-.482-.247a.22.22,0,0,0-.039.273A.288.288,0,0,0,4841.524,4888.551Zm6.4-1.523c.025-.131-.039-.222-.156-.222s-.209.117-.209.273C4847.555,4887.392,4847.854,4887.353,4847.92,4887.027Z" transform="translate(-4776.935 -4822.331)"/><path d="M5807.072,4889.536a1.1,1.1,0,0,1-.456-.391c-.156-.247-.287-.261-2.422-.261-2.267,0-2.267,0-2.527-.325a.785.785,0,0,0-.612-.326,1.124,1.124,0,0,1-1.055-1.146c0-.755.339-1.106,1.068-1.12.846-.013,1.12.26,1.172,1.211l.039.729,2.071.039c1.927.026,2.1.013,2.357-.235a1.365,1.365,0,0,1,1.445-.248,1.185,1.185,0,0,1,.326,1.863A1.577,1.577,0,0,1,5807.072,4889.536Zm.743-.964a.371.371,0,0,0-.1-.26c-.169-.1-.456.143-.365.3C5807.477,4888.819,5807.815,4888.794,5807.815,4888.572Zm-6.383-1.524c0-.156-.378-.312-.482-.208a.332.332,0,0,0,0,.273C5801.029,4887.322,5801.433,4887.257,5801.433,4887.048Z" transform="translate(-5724.431 -4822.326)"/><path d="M6790.7,4886.768a1.264,1.264,0,0,1-.7-1.067,1.5,1.5,0,0,1,1.12-1.159c.391,0,1.094.338,1.094.521a7.3,7.3,0,0,0,2.188.1l2.176-.039.013-.586c.013-1.042.534-1.537,1.407-1.355.651.13.86.4.86,1.107,0,.534-.053.651-.378.886a1.45,1.45,0,0,1-.717.273.675.675,0,0,0-.547.326l-.208.325h-2.279c-2.267,0-2.267,0-2.554.326A1.457,1.457,0,0,1,6790.7,4886.768Zm.808-.937c.1-.183-.183-.378-.417-.286-.208.078-.091.429.144.429A.356.356,0,0,0,6791.511,4885.83Zm6.408-1.589c.026-.13-.039-.222-.156-.222s-.208.117-.208.273C6797.555,4884.606,6797.854,4884.567,6797.919,4884.241Z" transform="translate(-6701.535 -4819.544)"/><path d="M7691.157,4523.233a.78.78,0,0,1-.482-.6,1.014,1.014,0,0,1-.052-.6,4.12,4.12,0,0,0-.886-1.081l-.951-.964h-1.211c-.756,0-1.211.052-1.211.143,0,.065-.2.208-.443.313a1.11,1.11,0,0,1-1.289-1.758,1.323,1.323,0,0,1,1.706.065c.247.313.326.326,1.563.326h1.315l1.029,1.042c.9.9,1.094,1.042,1.485,1.042.638,0,.9.248.977.925a.974.974,0,0,1-.169.86A1.341,1.341,0,0,1,7691.157,4523.233Zm.678-1.029c0-.143-.092-.26-.2-.26-.194,0-.273.274-.1.43S7691.835,4522.465,7691.835,4522.2Zm-6.148-2.761a.286.286,0,0,0-.234-.17.253.253,0,0,0-.222.17c-.039.091.052.156.222.156S7685.713,4519.534,7685.687,4519.443Z" transform="translate(-7584.223 -4459.553)"/><path d="M3064.734,4494.858a1.172,1.172,0,0,1-.326-.82c0-.4-.13-.586-1.016-1.472l-1-1h-1.042c-1,0-1.068.013-1.394.391a.92.92,0,0,1-.847.391c-.768-.013-1.107-.378-1.107-1.172s.339-1.16,1.081-1.172c.443,0,1.029.365,1.029.651a3.816,3.816,0,0,0,1.446.13H3063l1.042,1.042c.886.886,1.094,1.042,1.472,1.042a1.218,1.218,0,0,1,1.237,1.185,1.178,1.178,0,0,1-2.019.808Zm1.107-.755c0-.1-.117-.2-.26-.2-.26,0-.339.143-.169.3S3065.841,4494.3,3065.841,4494.1Zm-6.565-2.814a.23.23,0,0,0-.352-.286.25.25,0,0,0,.144.43A.307.307,0,0,0,3059.277,4491.289Z" transform="translate(-3018.146 -4431.517)"/><path d="M3854.181,4496.529a1.049,1.049,0,0,1-.3-.782c.026-.312-.13-.547-1-1.419l-1.042-1.042h-1.042c-1.029,0-1.068.013-1.354.4-.26.352-.352.39-.886.352a.948.948,0,0,1-.86-.391,1.171,1.171,0,0,1,.729-1.9c.508-.039,1.133.273,1.133.573,0,.143.3.182,1.446.182h1.433l1.107,1.094c.821.808,1.185,1.068,1.368,1.029a1.279,1.279,0,0,1,1.355,1.406,1.181,1.181,0,0,1-1.186.9A.925.925,0,0,1,3854.181,4496.529Zm1.107-.69a.373.373,0,0,0-.1-.261c-.169-.1-.456.144-.365.3C3854.949,4496.086,3855.288,4496.061,3855.288,4495.839Zm-6.513-2.943c0-.144-.091-.261-.2-.261s-.2.117-.2.261.091.26.2.26S3848.775,4493.039,3848.775,4492.9Z" transform="translate(-3797.303 -4433.239)"/><path d="M4840.573,4495.106a1.709,1.709,0,0,1-.573-1.042,1.313,1.313,0,0,1,1.42-1.16c.183.039.534-.234,1.329-1.028l1.094-1.095h1.342c1.341,0,1.341,0,1.68-.391a.876.876,0,0,1,.795-.391,1.059,1.059,0,0,1,1.159,1.081c.065.508.026.638-.261.925a1.131,1.131,0,0,1-1.693-.052c-.325-.378-.377-.391-1.38-.391h-1.042l-1.042,1.055c-.951.938-1.055,1.094-1.055,1.537a1,1,0,0,1-1.12,1.055A1.7,1.7,0,0,1,4840.573,4495.106Zm.964-1.029c.026-.1-.065-.169-.222-.169s-.273.078-.273.208C4841.042,4494.351,4841.446,4494.312,4841.537,4494.077Zm6.383-2.866c-.065-.325-.365-.364-.365-.052,0,.156.078.273.209.273S4847.945,4491.342,4847.92,4491.211Z" transform="translate(-4776.935 -4431.517)"/><path d="M5802.522,4493.919a1.128,1.128,0,0,1-.286-.782c0-.417-.118-.586-1.056-1.511l-1.042-1.055H5799.1c-1,0-1.055.013-1.381.391a.877.877,0,0,1-.872.391c-.6,0-.873-.2-1.107-.821a.981.981,0,0,1,.039-.808,1.129,1.129,0,0,1,1.928-.326c.378.378.417.391,1.706.391h1.329l1.082,1.082c.859.873,1.146,1.081,1.381,1.042a1.216,1.216,0,0,1,1.263,1.55,1.016,1.016,0,0,1-1.106.755A.983.983,0,0,1,5802.522,4493.919Zm1.016-.794a.371.371,0,0,0-.1-.261c-.169-.1-.456.143-.365.3C5803.2,4493.372,5803.538,4493.346,5803.538,4493.125Zm-6.447-2.944a.276.276,0,0,0-.221-.235c-.169-.026-.235.04-.235.235s.065.26.235.234A.275.275,0,0,0,5797.091,4490.181Z" transform="translate(-5720.153 -4430.524)"/><path d="M6790.573,4495.243a1.708,1.708,0,0,1-.573-1.042,1.307,1.307,0,0,1,1.433-1.159c.2.052.521-.2,1.354-1.029l1.095-1.094h1.328c1.3,0,1.329,0,1.693-.391a1.111,1.111,0,0,1,1.576-.117c.325.234.378.352.378.885,0,.808-.365,1.186-1.146,1.186a.819.819,0,0,1-.834-.391c-.273-.378-.312-.391-1.328-.391h-1.055l-1.056,1.042c-.912.9-1.042,1.081-.989,1.406a.957.957,0,0,1-.3.782.9.9,0,0,1-.886.417A1.84,1.84,0,0,1,6790.573,4495.243Zm.938-.951c.091-.156-.2-.4-.364-.3a.369.369,0,0,0-.1.261C6791.042,4494.474,6791.381,4494.5,6791.511,4494.292Zm6.408-2.944c-.065-.326-.364-.365-.364-.052,0,.157.078.274.208.274S6797.945,4491.479,6797.919,4491.348Z" transform="translate(-6701.535 -4431.653)"/><path d="M3648.193,1447.773a1.387,1.387,0,0,1-.573-.482,1.691,1.691,0,0,1,.326-2.162c.365-.313.378-.365.417-1.615l.039-1.277,2.058-.039,2.045-.039v-3.374h-1.485c-1.941,0-1.9.039-1.9-1.9V1435.4h-3.256v1.928a5.914,5.914,0,0,1-.182,2.149c-.143.182-.378.221-1.342.221-1.159,0-1.185,0-1.654.456a1.263,1.263,0,0,1-1.12.456,1.214,1.214,0,0,1-1.107-.456,1.161,1.161,0,0,1-.456-1.055c0-.625.326-1.355.612-1.355.091,0,.169-.052.169-.117,0-.182.729-.313,1.172-.208a2.11,2.11,0,0,1,.808.534,1.136,1.136,0,0,0,1.107.443h.69v-1.928a6.086,6.086,0,0,1,.156-2.084,7.121,7.121,0,0,1,2.28-.156h2.123v-2.6h-3.061c-2.592,0-3.087.026-3.139.2a1.5,1.5,0,0,1-.508.456,1.555,1.555,0,0,1-2.41-1.329,1.332,1.332,0,0,1,.4-1.081c.378-.43.456-.456,1.159-.456.677,0,.808.052,1.146.391l.391.391h6.018v-2.475h-5.939l-.443.456a1.158,1.158,0,0,1-1.146.456c-.651,0-.756-.039-1.146-.469a1.214,1.214,0,0,1-.443-1.081,1.652,1.652,0,0,1,1.563-1.576,1.4,1.4,0,0,1,1.133.456l.534.456h5.887v-2.605h-2.149c-1.98,0-2.149-.013-2.28-.247a11.139,11.139,0,0,1-.13-2.084v-1.837h-.7c-.573,0-.756.052-.951.3a1.887,1.887,0,0,1-1.146.638,1.371,1.371,0,0,1-1.29-.482A1.135,1.135,0,0,1,3640,1419a1.223,1.223,0,0,1,.443-1.107,1.133,1.133,0,0,1,1.12-.469,1.2,1.2,0,0,1,1.133.456l.456.456h1.224c1.068,0,1.237.026,1.354.248a11.572,11.572,0,0,1,.13,2.149v1.9h3.256v-1.5c0-2.006.013-2.019,1.954-2.019h1.433v-3.256H3650.5c-1.706,0-2.019-.026-2.084-.208a7.722,7.722,0,0,1-.078-1.3c0-1.068-.013-1.12-.391-1.472a1.649,1.649,0,0,1,.13-2.592,1.55,1.55,0,0,1,1.745-.013,1.641,1.641,0,0,1,.2,2.553c-.339.3-.378.43-.378,1.094v.755l2.058.039,2.045.039.039,2.188.026,2.175h2.605v-5.9l-.456-.43a1.1,1.1,0,0,1-.456-1.12,1.541,1.541,0,0,1,1.563-1.667,1.568,1.568,0,0,1,1.563,1.6,1.5,1.5,0,0,1-.612,1.3c-.3.234-.3.247-.3,3.23v2.983h2.6v-5.875l-.391-.326a1.937,1.937,0,0,1-.6-1.693,1.873,1.873,0,0,1,1.485-1.224,1.674,1.674,0,0,1,1.654,1.928,2.024,2.024,0,0,1-.534.912l-.443.443v5.835h2.6v-2.058a6.73,6.73,0,0,1,.156-2.214,6.088,6.088,0,0,1,2.084-.156h1.928v-.795c0-.716-.039-.821-.391-1.12s-.391-.391-.391-1.146.026-.847.4-1.159a1.594,1.594,0,1,1,2.123,2.371c-.43.43-.443.469-.443,1.524a7.552,7.552,0,0,1-.078,1.29c-.065.182-.378.208-2.084.208H3665.4v3.23l1.563.052c1.224.026,1.6.078,1.693.234a7.543,7.543,0,0,1,.13,1.732v1.524h3.256v-1.915a5.947,5.947,0,0,1,.182-2.162c.143-.182.378-.221,1.368-.221h1.2l.43-.456a1.116,1.116,0,0,1,1.042-.456c1.133,0,1.628.482,1.628,1.563a1.328,1.328,0,0,1-.951,1.485c-.469.221-.521.221-1.068.013a1.921,1.921,0,0,1-.794-.534c-.169-.26-.3-.313-.9-.313h-.7v1.837a11.139,11.139,0,0,1-.13,2.084c-.13.234-.3.247-2.345.247h-2.214v2.605h6l.469-.456a1.217,1.217,0,0,1,1.094-.456,1.343,1.343,0,0,1,1.094.4c.43.378.456.456.456,1.159,0,.677-.039.807-.4,1.159s-.482.4-1.159.4c-.729,0-.795-.026-1.133-.456l-.365-.456h-6.057v2.475h3.126a11.761,11.761,0,0,0,3.126-.143c0-.352.586-.625,1.342-.638.677,0,.808.039,1.146.378s.378.482.378,1.146a1.315,1.315,0,0,1-.873,1.459,1.783,1.783,0,0,1-2.045-.573c-.052-.169-.547-.2-3.139-.2h-3.061v2.6H3671c2.045,0,2.214.013,2.345.248a11.138,11.138,0,0,1,.13,2.084v1.837h.69c.6,0,.716-.039.859-.313a1.715,1.715,0,0,1,.677-.534,1.536,1.536,0,0,1,1.811.339,1.768,1.768,0,0,1-.052,2.279,1.177,1.177,0,0,1-1.081.443,1.157,1.157,0,0,1-1.081-.456c-.456-.443-.456-.443-1.654-.456-1.615,0-1.6.013-1.6-2.436V1435.4h-3.256v1.446a7.733,7.733,0,0,1-.13,1.693c-.13.221-.287.247-1.693.247H3665.4v3.374l2.058.039,2.045.039.039,1.3c.039,1.264.052,1.316.391,1.55a1.594,1.594,0,1,1-2.084,2.4c-.313-.339-.365-.495-.365-1.133,0-.664.052-.795.391-1.133s.378-.469.391-1.12v-.756h-1.954c-1.784,0-1.954-.026-2.084-.247a11.5,11.5,0,0,1-.13-2.28v-2.032h-2.6v6.057l.378.26a1.6,1.6,0,0,1,.534,1.784,1.423,1.423,0,0,1-1.029,1.016,1.6,1.6,0,0,1-1.433-2.814l.378-.247v-6.057h-2.6v5.953l.456.482a1.249,1.249,0,0,1,.456,1.055,1.439,1.439,0,0,1-.808,1.511c-.768.391-1.224.313-1.954-.378-.312-.287-.365-.443-.365-1.029a1.228,1.228,0,0,1,.456-1.159l.456-.456v-5.979h-2.605v2.071a20.633,20.633,0,0,1-.078,2.28c-.065.182-.378.208-2.084.208h-2.006v.729c0,.638.052.755.391,1.081a1.277,1.277,0,0,1,.469,1,1.438,1.438,0,0,1-.6,1.511A1.587,1.587,0,0,1,3648.193,1447.773Zm1.029-1.394c-.065-.339-.495-.378-.495-.052,0,.2.078.273.273.273S3649.248,1446.536,3649.222,1446.38Zm8.037-.039a.275.275,0,0,0-.221-.234c-.169-.026-.234.039-.234.234s.065.26.234.234A.275.275,0,0,0,3657.259,1446.341Zm3.843,0c0-.3-.326-.352-.43-.078-.091.208.013.339.26.339C3661.023,1446.6,3661.1,1446.484,3661.1,1446.341Zm8.18.039c.065-.221-.339-.378-.521-.2a.238.238,0,0,0-.039.287A.347.347,0,0,0,3669.281,1446.38Zm-27.405-7.268a.227.227,0,0,0-.13-.287c-.247-.091-.508.143-.391.339A.293.293,0,0,0,3641.875,1439.112Zm34.791.065a.323.323,0,0,0-.078-.339c-.143-.169-.182-.169-.352,0a.322.322,0,0,0-.1.326A.336.336,0,0,0,3676.666,1439.177Zm-34.856-8.414c-.2-.235-.365-.235-.469.026a.272.272,0,0,0,.443.287C3641.915,1430.971,3641.915,1430.893,3641.811,1430.762Zm34.778.3a.208.208,0,0,0-.013-.326c-.208-.208-.325-.2-.417.052C3676,1431.179,3676.314,1431.375,3676.588,1431.062Zm.052-4.077a.28.28,0,0,0-.495-.052c-.052.078-.013.221.065.339A.26.26,0,0,0,3676.64,1426.985Zm-34.817.156c0-.261-.247-.4-.417-.234a.246.246,0,0,0-.052.274C3641.485,1427.389,3641.823,1427.35,3641.823,1427.141Zm-.013-8.011c.208-.13.078-.4-.182-.4a.269.269,0,0,0-.26.391C3641.472,1419.274,3641.576,1419.274,3641.811,1419.131Zm34.895-.1c.065-.221-.339-.378-.521-.2a.238.238,0,0,0-.039.287A.347.347,0,0,0,3676.705,1419.027Zm-27.523-7.4c0-.365-.377-.326-.43.039-.039.247,0,.3.2.26A.308.308,0,0,0,3649.183,1411.628Zm8.1.117c.1-.274-.169-.547-.365-.352-.169.169-.065.56.143.56C3657.141,1411.954,3657.232,1411.863,3657.285,1411.745Zm3.816-.039a.465.465,0,0,0-.144-.352c-.182-.1-.378.182-.286.43A.219.219,0,0,0,3661.1,1411.706Zm8.115.078a.458.458,0,0,0-.052-.365c-.091-.156-.143-.143-.326.039-.221.221-.156.495.144.495A.287.287,0,0,0,3669.216,1411.784Z" transform="translate(-3592.565 -1391.634)"/><path d="M1946.084,3835.015a1.273,1.273,0,0,1-.482-1.485,1.173,1.173,0,0,1,1.889-.339c.3.3.417.326,1.5.326h1.159l.977-.964c.9-.873.977-.99.977-1.485a.961.961,0,0,1,1.042-1.068,1.177,1.177,0,0,1,1.172.769.832.832,0,0,1-.091.886c-.234.443-.313.5-.847.534s-.664.117-1.667,1.133l-1.107,1.107H1949.2c-1.146,0-1.42.039-1.485.2a1.5,1.5,0,0,1-1.042.586A1.929,1.929,0,0,1,1946.084,3835.015Zm.807-1.055a.19.19,0,0,0-.2-.183c-.2,0-.273.274-.117.43C1946.709,3834.325,1946.892,3834.181,1946.892,3833.96Zm6.461-2.67c.1-.182-.143-.43-.326-.326-.143.091-.052.469.117.469A.308.308,0,0,0,1953.352,3831.29Z" transform="translate(-1920.167 -3780.113)"/><path d="M2948.392,3834.38a1.065,1.065,0,0,1-.43-.391c-.052-.156-.339-.2-1.472-.2h-1.407l-1.107-1.107c-1.016-1.029-1.146-1.107-1.628-1.107-.625,0-.964-.312-1.068-.99-.065-.352,0-.5.326-.834a1.111,1.111,0,0,1,1.98.678c0,.495.078.612.977,1.485l.977.964h1.172c.9,0,1.2-.04,1.25-.183.117-.287.781-.508,1.29-.417a1,1,0,0,1,.847,1.068c0,.6-.117.821-.534,1.029A1.063,1.063,0,0,1,2948.392,3834.38Zm.794-1.055a.189.189,0,0,0-.2-.183c-.2,0-.273.273-.117.43C2949,3833.689,2949.187,3833.546,2949.187,3833.325Zm-6.564-2.944c-.3-.169-.521,0-.326.234.117.144.2.156.338.026S2942.791,3830.473,2942.622,3830.381Z" transform="translate(-2902.924 -3779.478)"/><path d="M2690.253,3529.282a1.024,1.024,0,0,1,.013-1.6l.391-.391v-4.116l-.391-.391a1.024,1.024,0,0,1-.013-1.6,1.16,1.16,0,0,1,1.889.286,1.026,1.026,0,0,1-.26,1.381c-.3.287-.312.326-.312,2.384s.013,2.1.313,2.384a1.084,1.084,0,0,1,.287,1.381A1.15,1.15,0,0,1,2690.253,3529.282Zm1.055-.873c0-.222-.338-.248-.469-.039-.091.156.2.4.365.3A.371.371,0,0,0,2691.308,3528.409Zm0-6.356a.372.372,0,0,0-.1-.261c-.169-.1-.456.144-.365.3C2690.97,3522.3,2691.308,3522.274,2691.308,3522.053Z" transform="translate(-2654.814 -3474.953)"/><path d="M1946.653,3553.2a1.152,1.152,0,0,1-.43-.638,1.13,1.13,0,0,1,1.055-1.537.8.8,0,0,0,.6-.391l.3-.39h2.214c2.188,0,2.24,0,2.618-.326a1.167,1.167,0,0,1,1.875.338,1.038,1.038,0,0,1-.26,1.329,1.1,1.1,0,0,1-1.667-.039l-.391-.391h-1.928c-2.2,0-2.292.039-2.227.99a.876.876,0,0,1-.326.9A1.249,1.249,0,0,1,1946.653,3553.2Zm.834-1.042c.026-.13-.039-.222-.156-.222s-.208.117-.208.273C1947.122,3552.52,1947.422,3552.481,1947.487,3552.156Zm6.487-1.277a.238.238,0,0,0-.026-.247c-.156-.156-.495.065-.391.247A.227.227,0,0,0,1953.973,3550.879Z" transform="translate(-1920.788 -3503.35)"/><path d="M2948.205,3552.931a1.338,1.338,0,0,1-.456-1.381c.1-.182.078-.287-.1-.456s-.56-.208-2.149-.208h-1.928l-.391.391a1.165,1.165,0,0,1-2.019-.7c-.065-.391-.013-.521.326-.86a1.162,1.162,0,0,1,1.693-.065c.377.325.43.325,2.6.325h2.227l.274.391a.742.742,0,0,0,.664.39,1.183,1.183,0,0,1,.69,2.019A1.252,1.252,0,0,1,2948.205,3552.931Zm.834-1.042c.026-.13-.039-.222-.156-.222s-.209.117-.209.274C2948.674,3552.254,2948.974,3552.215,2949.039,3551.889Zm-6.5-1.537a.435.435,0,0,0-.339-.026c-.13.052-.144.117-.026.247s.2.156.339.039S2942.657,3550.43,2942.539,3550.352Z" transform="translate(-2902.802 -3503.083)"/><path d="M2663.938,3243.951c-.208-.117-.365-.287-.365-.378s-.052-.169-.13-.169-.156-.2-.2-.443a1.667,1.667,0,0,1,.781-1.641,1.3,1.3,0,0,1,1.446-.052,1.5,1.5,0,0,1,.834,1.472,1.125,1.125,0,0,1-.482.99,1.156,1.156,0,0,1-1,.456A1.86,1.86,0,0,1,2663.938,3243.951Zm1.263-.886a.576.576,0,0,0-.13-.912c-.234-.156-.312-.143-.56.026a.58.58,0,0,0-.052.951A.508.508,0,0,0,2665.2,3243.065Z" transform="translate(-2628.512 -3198.857)"/><path d="M1947.594,3272.028a1.2,1.2,0,0,1,.781-2.11c.378.013.951.391.951.638,0,.1.69.143,2.149.143h2.136l.4-.391a1.091,1.091,0,0,1,1.6-.078,1.059,1.059,0,0,1,.3,1.367,1.16,1.16,0,0,1-1.941.274l-.339-.391h-4.129l-.286.391a.827.827,0,0,1-.86.391A1.022,1.022,0,0,1,1947.594,3272.028Zm.925-.9c-.065-.326-.365-.365-.365-.052,0,.156.078.274.208.274S1948.544,3271.26,1948.519,3271.129Zm6.473.091c.144-.222-.065-.417-.273-.248-.091.078-.143.2-.1.26A.211.211,0,0,0,1954.992,3271.221Z" transform="translate(-1921.82 -3227.325)"/><path d="M2940.812,3271.076a1.044,1.044,0,0,1,.039-1.563,1.09,1.09,0,0,1,1.68.013l.378.391h4.1l.391-.391a1.063,1.063,0,0,1,1.889.69c.091.808-.3,1.264-1.068,1.264-.5,0-.625-.065-.873-.391l-.286-.391h-4.129l-.339.391a.888.888,0,0,1-.886.391A.9.9,0,0,1,2940.812,3271.076Zm1.068-.729c-.052-.286-.286-.26-.338.013a.156.156,0,0,0,.169.208A.165.165,0,0,0,2941.879,3270.347Zm6.513,0c-.065-.326-.365-.365-.365-.052,0,.156.078.274.208.274S2948.418,3270.477,2948.392,3270.347Z" transform="translate(-2902.156 -3226.543)"/><path d="M2690.385,2532.334a1.088,1.088,0,0,1-.3-1.85l.391-.391v-4.155l-.391-.339a.883.883,0,0,1-.391-.717,1.214,1.214,0,0,1,2.227-.677,1.062,1.062,0,0,1-.221,1.472c-.312.248-.312.274-.312,2.4,0,1.758.039,2.162.182,2.214a1.356,1.356,0,0,1,.534,1.264c-.091.417-.743,1.042-1.081,1.042A1.756,1.756,0,0,1,2690.385,2532.334Zm.678-1.172c-.065-.1-.144-.1-.273.013-.157.13-.157.182-.026.26C2690.972,2531.565,2691.193,2531.37,2691.063,2531.162Zm.065-6.3a.372.372,0,0,0-.1-.26c-.169-.1-.456.143-.365.3C2690.79,2525.1,2691.128,2525.079,2691.128,2524.857Z" transform="translate(-2654.634 -2490.783)"/><path d="M1957.831,2888.018c-.43-.208-.781-.495-.781-.638s-.56-.169-2.41-.169a7.292,7.292,0,0,1-2.41-.143c0-.248-.325-.469-.846-.547a1.174,1.174,0,0,1-.677-.312,1.973,1.973,0,0,1-.039-1.472,1.31,1.31,0,0,1,1.446-.391c.495.208.664.534.625,1.172-.065.86.052.912,2.253.912,1.889,0,1.954-.013,2.227-.312a1.191,1.191,0,0,1,1.967.2,1.084,1.084,0,0,1-.222,1.394A1.207,1.207,0,0,1,1957.831,2888.018Zm.469-1.263c-.065-.183-.117-.2-.274-.065s-.169.208-.052.352C1958.17,2887.276,1958.418,2887.054,1958.3,2886.755Zm-6.461-1.3a.2.2,0,1,0-.2.2A.2.2,0,0,0,1951.84,2885.452Z" transform="translate(-1925.115 -2846.702)"/><path d="M2943.195,2888.368a1.432,1.432,0,0,1-.638-1.341,1.417,1.417,0,0,1,1.107-.99,1.588,1.588,0,0,1,1.094.612c.078.13.6.169,2.1.169,2.188,0,2.4-.065,2.24-.716a1.2,1.2,0,0,1,2.136-.977,1.232,1.232,0,0,1-.9,1.824.648.648,0,0,0-.612.325l-.208.326h-4.533l-.365.391A1.257,1.257,0,0,1,2943.195,2888.368Zm.781-.99c.052-.039.026-.156-.052-.26-.117-.13-.2-.13-.325-.026-.1.078-.143.2-.1.261A.334.334,0,0,0,2943.976,2887.378Zm6.474-1.537a.2.2,0,1,0-.2.2A.2.2,0,0,0,2950.45,2885.841Z" transform="translate(-2904.187 -2847.091)"/><path d="M1952.611,2505.119a.973.973,0,0,1-.664-1.016c0-.482-.078-.612-1.016-1.537l-1-1h-1.2c-1.042,0-1.185.026-1.25.248-.026.13-.26.313-.521.391a1.17,1.17,0,0,1-1.5-1.563c.156-.469.456-.638,1.081-.638.56,0,.977.2.977.456,0,.156.261.2,1.42.2h1.42l1.107,1.107c1.016,1.016,1.146,1.107,1.615,1.107a1.113,1.113,0,0,1,1.094,1.472A1.2,1.2,0,0,1,1952.611,2505.119Zm.586-1.277c-.065-.182-.117-.2-.274-.065s-.169.208-.052.352C1953.067,2504.363,1953.314,2504.142,1953.2,2503.842Zm-6.461-2.8c0-.143-.091-.261-.2-.261s-.2.117-.2.261.091.26.2.26S1946.737,2501.185,1946.737,2501.042Z" transform="translate(-1920.012 -2467.437)"/><path d="M2940.967,2504.806a1.01,1.01,0,0,1-.182-1.42.91.91,0,0,1,1-.521c.443,0,.6-.1,1.6-1.107l1.107-1.107h1.342c1.289,0,1.342-.013,1.55-.326.182-.274.313-.326.808-.326.782,0,1.068.169,1.172.7.143.768-.052,1.25-.56,1.459a1.221,1.221,0,0,1-1.472-.352c-.117-.208-.287-.248-1.277-.248h-1.133l-1.016,1.016c-.86.873-1,1.068-1,1.458a.885.885,0,0,1-.521.951A1.011,1.011,0,0,1,2940.967,2504.806Zm1.081-.912c-.1-.182-.443-.143-.443.052a.367.367,0,0,0,.091.26C2941.813,2504.324,2942.139,2504.038,2942.048,2503.895Zm6.435-2.813c-.065-.326-.365-.365-.365-.052,0,.156.078.273.208.273S2948.509,2501.211,2948.482,2501.081Z" transform="translate(-2902.246 -2467.437)"/></g><g transform="translate(8.968 28.786)"><path class="a" d="M1896.939,10034.526a6.629,6.629,0,0,1-2.136-1.94c-2.227-3.021-4.819-11.332-4.806-15.448a6.285,6.285,0,0,1,2.084-4.923,7.879,7.879,0,0,1,10.954,0,6.245,6.245,0,0,1,2.032,5.535,37.759,37.759,0,0,1-4.429,14.3,7.556,7.556,0,0,1-2.371,2.437A2.483,2.483,0,0,1,1896.939,10034.526Z" transform="translate(-1874.324 -9908.402)"/><path class="a" d="M695.91,7676.5a22.249,22.249,0,0,1-8.935-14.041,24.665,24.665,0,0,1,0-6.643,21.683,21.683,0,0,1,4.637-10.095,26.746,26.746,0,0,1,6.122-5.25,24.63,24.63,0,0,1,8.584-2.969,29.42,29.42,0,0,1,7.646.065,23.248,23.248,0,0,1,12.765,6.46,21.262,21.262,0,0,1,5.445,8.6,22.129,22.129,0,0,1,.391,11.593,22.66,22.66,0,0,1-5.3,9.443c-1.224,1.276-3.921,3.5-4.064,3.36a17.909,17.909,0,0,1-.078-1.836l-.013-1.8,1.029-1.067a19.2,19.2,0,0,0,5.471-9.86,22.408,22.408,0,0,0-.091-7.034,19.536,19.536,0,0,0-16.933-14.979,24.831,24.831,0,0,0-6.148.13c-9.691,1.654-16.711,9.821-16.347,19.017a16.677,16.677,0,0,0,1.9,7.489,17.262,17.262,0,0,0,3.608,4.976l1.224,1.211v1.888a9.716,9.716,0,0,1-.091,1.889A4.214,4.214,0,0,1,695.91,7676.5Z" transform="translate(-686.75 -7566.594)"/><path class="a" d="M6480,9118.662V9110h17.193v17.324H6480Zm15.37,6.591c.078-.169.13-2.462.13-6.552,0-5.484-.026-6.33-.208-6.591l-.2-.286h-6.5c-5.731,0-6.512.025-6.7.208s-.208.951-.208,6.577c0,4.156.052,6.475.13,6.644.13.235.352.247,6.773.247S6495.24,9125.488,6495.37,9125.253Z" transform="translate(-6404.541 -9020.125)"/><path class="a" d="M6700,9335.8V9330h11.462v11.593H6700Zm10.472.638c.17-.156.209-.533.209-1.928,0-1.537-.026-1.758-.248-1.953-.2-.183-.312-.2-.508-.092-.377.2-.417.4-.417,2.084,0,1.159.053,1.589.209,1.811C6709.951,9336.7,6710.2,9336.723,6710.472,9336.436Z" transform="translate(-6621.676 -9237.261)"/><path class="a" d="M1375.622,8308.313a12.912,12.912,0,0,1-1.745-13.416,14.188,14.188,0,0,1,9.808-7.763,12.155,12.155,0,0,1,3.413-.273,11.252,11.252,0,0,1,3.556.339,13.844,13.844,0,0,1,6.8,3.868,12.068,12.068,0,0,1,3.817,9.118,11.481,11.481,0,0,1-1.016,5.105,14.917,14.917,0,0,1-2.136,3.413c-.274.247-.274.233-1.342-.782-.6-.56-1.094-1.055-1.12-1.107a2.171,2.171,0,0,1,.4-.729,10.052,10.052,0,0,0,1.654-8.193,10.68,10.68,0,0,0-8.206-7.8,15.626,15.626,0,0,0-5.275.066,11.066,11.066,0,0,0-5.288,3.074,9.947,9.947,0,0,0-1.146,12.543l.651.977-.69.7c-.378.377-.9.873-1.159,1.082l-.482.377Z" transform="translate(-1363.805 -8207.705)"/><path class="a" d="M2067.957,8944.392a5.647,5.647,0,0,1-2.592-2.514,5.628,5.628,0,0,1,0-3.986,5.6,5.6,0,0,1,2.527-2.475,7.16,7.16,0,0,1,4.624-.065,6.391,6.391,0,0,1,2.318,1.993,4.9,4.9,0,0,1-2.175,7.047,4.144,4.144,0,0,1-2.253.416A3.587,3.587,0,0,1,2067.957,8944.392Z" transform="translate(-2047.048 -8847.404)"/><path class="a" d="M5220,6835.015V6830h10.16v10.029H5220Zm9.053,0v-3.908h-7.945l-.039,3.777c-.014,2.071,0,3.856.039,3.947.039.13.9.156,4,.13l3.947-.039Z" transform="translate(-5160.953 -6769.823)"/><path class="a" d="M5350,6963.322V6960h6.773v6.643H5350Zm6.226-.7c.039-1.159-.078-1.485-.43-1.186-.144.117-.2.417-.2,1.172,0,1.042.052,1.212.391,1.146C5356.148,6963.713,5356.2,6963.479,5356.227,6962.619Z" transform="translate(-5289.26 -6898.131)"/><path class="a" d="M1700,5045.015V5040h10.03v10.029H1700Zm8.961.065c.026-3.491.013-3.855-.2-4-.156-.13-1.146-.169-3.829-.169-3.113,0-3.647.025-3.816.208s-.208.7-.208,3.777a27.728,27.728,0,0,0,.13,3.843c.13.247.287.247,4.012.221l3.869-.039Z" transform="translate(-1686.802 -5003.138)"/><path class="a" d="M1820.026,5168.36l.039-3.36h6.643l.039,3.36.026,3.348H1820Zm6.2-.794c.039-1.133.026-1.2-.234-1.2s-.261.078-.261,1.146a4.9,4.9,0,0,0,.091,1.25C1826.07,5169.012,1826.187,5168.66,1826.226,5167.566Z" transform="translate(-1805.239 -5126.51)"/><path class="a" d="M4440,2218.6V2210h17.193v17.193H4440Zm15.123,6.773c.234-.13.248-.352.248-6.747,0-4.976-.04-6.656-.157-6.773s-1.771-.156-6.63-.156c-5.718,0-6.5.026-6.682.208s-.208.964-.208,6.7v6.5l.286.2c.261.182,1.107.208,6.591.208C4452.661,2225.5,4454.953,2225.448,4455.123,2225.37Z" transform="translate(-4391.113 -2210)"/><path class="a" d="M4660,2435.731V2430h11.462v11.462H4660Zm10.473.495c.156-.221.208-.638.208-1.758,0-1.706-.117-2.123-.573-2.123-.5,0-.6.352-.6,2.084a8.887,8.887,0,0,0,.13,1.836C4669.821,2436.6,4670.225,2436.578,4670.473,2436.226Z" transform="translate(-4608.247 -2427.135)"/></g><g transform="translate(9.067 31.652)"><path class="b" d="M702.978,7678.33a19.333,19.333,0,0,1-3.517-3.309,21.868,21.868,0,0,1-4.832-9.887,27.79,27.79,0,0,1-.013-7.425,22.093,22.093,0,0,1,9.509-14.119,23.669,23.669,0,0,1,34.061,8,20.054,20.054,0,0,1,2.358,11.5,17.973,17.973,0,0,1-2.149,7.581,19.941,19.941,0,0,1-3.829,5.405,24.684,24.684,0,0,1-3.751,3.126,8.888,8.888,0,0,1-.091-1.811l.013-1.8.768-.768c4.09-4.077,5.927-8.22,5.927-13.4a16.809,16.809,0,0,0-1.837-8.075,19.947,19.947,0,0,0-16.555-10.746,18.894,18.894,0,0,0-5.145.208,23.188,23.188,0,0,0-8.31,3.374,29.424,29.424,0,0,0-4.95,5,17.965,17.965,0,0,0-1.224,18.157,19.045,19.045,0,0,0,4.025,5.433l.86.846-.065,1.811-.078,1.8Z" transform="translate(-694.373 -7571.744)"/><path class="b" d="M6700,9345.668V9340h11.462v11.332H6700Zm10.524.689a5.692,5.692,0,0,0,.156-1.992c0-1.941-.052-2.15-.612-2.15-.456,0-.561.391-.561,2.15a9.448,9.448,0,0,0,.131,1.9A.61.61,0,0,0,6710.524,9346.357Z" transform="translate(-6621.775 -9249.996)"/><path class="b" d="M1400.925,8314.262l-1.12-1.068.625-.912a10.284,10.284,0,0,0,1.771-6.186,10.82,10.82,0,0,0-11.189-9.9,11.107,11.107,0,0,0-10.576,7.945,12.184,12.184,0,0,0,0,4.95,13.418,13.418,0,0,0,1.667,3.5l.43.585-1.029.977a9.286,9.286,0,0,1-1.185,1.029,10.554,10.554,0,0,1-1.837-2.475,13.377,13.377,0,0,1-1.537-5.966c-.065-6.174,4.259-11.462,10.72-13.1a22.745,22.745,0,0,1,6.969,0,13.947,13.947,0,0,1,7.2,4.182,12.736,12.736,0,0,1,.782,16.764l-.573.729Z" transform="translate(-1368.054 -8217.002)"/><path class="b" d="M5350,6963.322V6960h6.643v6.643H5350Zm6.252.339a5.239,5.239,0,0,0,.013-2.2.35.35,0,0,0-.352-.131c-.222.039-.248.183-.287,1.134a2.689,2.689,0,0,0,.118,1.263C5355.953,6963.974,5356.083,6963.96,5356.253,6963.661Z" transform="translate(-5289.359 -6900.996)"/><path class="b" d="M1830,5173.321V5170h6.643v6.643H1830Zm6.226-.729c.026-.886-.013-1.159-.169-1.289s-.234-.13-.391,0-.2.442-.2,1.237a4.258,4.258,0,0,0,.091,1.159.492.492,0,0,0,.365.052C1836.161,5173.712,1836.187,5173.608,1836.226,5172.592Z" transform="translate(-1815.208 -5134.311)"/><path class="b" d="M4660,2435.731V2430l5.705.026,5.692.039V2441.4l-5.692.039-5.705.026Zm10.524.625a5.435,5.435,0,0,0,.156-1.941c0-1.459-.039-1.836-.208-1.993-.235-.247-.365-.26-.717-.078-.222.13-.248.3-.248,1.993,0,1.954.065,2.175.586,2.175A.663.663,0,0,0,4670.524,2436.356Z" transform="translate(-4608.346 -2430)"/></g></svg>